<svg width="63" height="63" viewBox="0 0 63 63" fill="none" xmlns="http://www.w3.org/2000/svg">
<g clip-path="url(#clip0_273_515)">
<path fill-rule="evenodd" clip-rule="evenodd" d="M44.8374 17.5009C48.4475 21.111 50.4756 26.0073 50.4756 31.1127C50.4756 36.2181 48.4475 41.1144 44.8374 44.7245C41.2273 48.3346 36.331 50.3627 31.2256 50.3627C26.1202 50.3627 21.2239 48.3346 17.6138 44.7245C14.0037 41.1144 11.9756 36.2181 11.9756 31.1127C11.9756 26.0073 14.0037 21.111 17.6138 17.5009C21.2239 13.8908 26.1202 11.8627 31.2256 11.8627C36.331 11.8627 41.2273 13.8908 44.8374 17.5009ZM15.6692 46.669C19.795 50.7948 25.3908 53.1127 31.2256 53.1127C37.0603 53.1127 42.6561 50.7948 46.7819 46.669C50.9077 42.5432 53.2256 36.9475 53.2256 31.1127C53.2256 25.2779 50.9077 19.6821 46.7819 15.5563C42.6561 11.4305 37.0603 9.1127 31.2256 9.1127C25.3908 9.1127 19.795 11.4305 15.6692 15.5563C11.5434 19.6821 9.22559 25.2779 9.22559 31.1127C9.22558 36.9475 11.5434 42.5432 15.6692 46.669ZM21.6001 29.6387C21.2352 29.639 20.8854 29.7842 20.6276 30.0424C20.3697 30.3006 20.225 30.6506 20.2253 31.0155C20.2256 31.3803 20.3708 31.7302 20.6289 31.988C20.8871 32.2458 21.2372 32.3905 21.602 32.3903L37.5317 32.3903L32.1492 37.7728C31.8914 38.0306 31.7465 38.3804 31.7465 38.745C31.7465 39.1097 31.8914 39.4594 32.1492 39.7173C32.4071 39.9752 32.7568 40.12 33.1215 40.12C33.4862 40.12 33.8359 39.9752 34.0938 39.7173L41.8233 31.9877C42.0812 31.7299 42.2261 31.3801 42.2261 31.0155C42.2261 30.6508 42.0812 30.3011 41.8233 30.0432L34.0938 22.3136C33.8359 22.0558 33.4862 21.9109 33.1215 21.9109C32.7568 21.9109 32.4071 22.0558 32.1492 22.3136C31.8914 22.5715 31.7465 22.9212 31.7465 23.2859C31.7465 23.6506 31.8914 24.0003 32.1492 24.2582L37.5317 29.6407L21.6001 29.6387Z" fill="#FCD9BB"/>
</g>
<defs>
<clipPath id="clip0_273_515">
<rect width="44" height="44" fill="white" transform="matrix(-0.707107 0.707107 0.707107 0.707107 31.2256 0)"/>
</clipPath>
</defs>
</svg>
