<svg width="63" height="63" viewBox="0 0 63 63" fill="none" xmlns="http://www.w3.org/2000/svg">
<g clip-path="url(#clip0_273_513)">
<path fill-rule="evenodd" clip-rule="evenodd" d="M17.5005 17.5009C13.8904 21.111 11.8623 26.0073 11.8623 31.1127C11.8623 36.2181 13.8904 41.1144 17.5005 44.7245C21.1106 48.3346 26.0069 50.3627 31.1123 50.3627C36.2177 50.3627 41.114 48.3346 44.7241 44.7245C48.3342 41.1144 50.3623 36.2181 50.3623 31.1127C50.3623 26.0073 48.3342 21.111 44.7241 17.5009C41.114 13.8908 36.2177 11.8627 31.1123 11.8627C26.0069 11.8627 21.1106 13.8908 17.5005 17.5009ZM46.6687 46.669C42.5429 50.7948 36.9471 53.1127 31.1123 53.1127C25.2775 53.1127 19.6818 50.7948 15.556 46.669C11.4302 42.5432 9.1123 36.9475 9.1123 31.1127C9.1123 25.2779 11.4302 19.6821 15.556 15.5563C19.6818 11.4305 25.2775 9.1127 31.1123 9.1127C36.9471 9.1127 42.5429 11.4305 46.6687 15.5563C50.7945 19.6821 53.1123 25.2779 53.1123 31.1127C53.1123 36.9475 50.7945 42.5432 46.6687 46.669ZM40.7378 29.6387C41.1027 29.639 41.4525 29.7842 41.7103 30.0424C41.9681 30.3006 42.1128 30.6506 42.1126 31.0155C42.1123 31.3803 41.9671 31.7302 41.7089 31.988C41.4508 32.2458 41.1007 32.3905 40.7359 32.3903L24.8062 32.3903L30.1886 37.7728C30.4465 38.0306 30.5914 38.3804 30.5914 38.745C30.5914 39.1097 30.4465 39.4594 30.1886 39.7173C29.9308 39.9752 29.581 40.12 29.2164 40.12C28.8517 40.12 28.502 39.9752 28.2441 39.7173L20.5145 31.9877C20.2567 31.7299 20.1118 31.3801 20.1118 31.0155C20.1118 30.6508 20.2567 30.3011 20.5145 30.0432L28.2441 22.3136C28.502 22.0558 28.8517 21.9109 29.2164 21.9109C29.581 21.9109 29.9308 22.0558 30.1886 22.3136C30.4465 22.5715 30.5914 22.9212 30.5914 23.2859C30.5914 23.6506 30.4465 24.0003 30.1886 24.2582L24.8061 29.6407L40.7378 29.6387Z" fill="#FCD9BB"/>
</g>
<defs>
<clipPath id="clip0_273_513">
<rect width="44" height="44" fill="white" transform="translate(31.1123) rotate(45)"/>
</clipPath>
</defs>
</svg>
