<svg width="138" height="138" viewBox="0 0 138 138" fill="none" xmlns="http://www.w3.org/2000/svg">
<g id="la:discord">
<path id="Vector" d="M54.579 21.1572L51.2109 21.5626C51.2109 21.5626 36.0999 23.2143 25.0642 32.0765H24.9349L24.7969 32.2059C22.3215 34.4829 21.2434 37.2817 19.5399 41.3742C17.532 46.2981 15.8225 51.3385 14.421 56.468C11.2211 68.0384 8.625 82.054 8.625 94.8751V95.9532L9.16406 97.0313C13.1574 104.039 20.2472 108.503 26.8194 111.586C33.3874 114.669 39.0669 116.304 42.9913 116.438L45.5529 116.571L46.8984 114.281L51.6163 105.924C56.6188 107.054 62.3803 107.813 69 107.813C75.6197 107.813 81.3812 107.054 86.3837 105.924L91.1016 114.281L92.4514 116.571L95.0087 116.438C98.9331 116.304 104.613 114.669 111.181 111.586C117.753 108.503 124.843 104.039 128.836 97.0313L129.375 95.9532V94.8751C129.375 82.054 126.779 68.0384 123.579 56.468C122.177 51.3385 120.468 46.2981 118.46 41.3742C116.757 37.2774 115.678 34.4829 113.203 32.2102L113.069 32.0722H112.931C101.904 23.2143 86.7891 21.5626 86.7891 21.5626L83.421 21.1572L82.2049 24.2579C82.2049 24.2579 80.9586 27.406 80.1866 30.9984C76.4792 30.4868 72.7425 30.216 69 30.1876C66.6928 30.1876 62.7038 30.3385 57.8134 30.9984C57.3033 28.7055 56.6274 26.4528 55.7908 24.2579L54.579 21.1572ZM48.6493 30.9984C48.8348 31.6021 49.0202 32.1239 49.1884 32.6155C43.6123 33.9955 37.6654 36.1 32.2101 39.4854L36.7899 46.7649C47.9766 39.8217 64.0449 38.8126 69 38.8126C73.9508 38.8126 90.0234 39.8217 101.21 46.7649L105.79 39.4854C100.335 36.1 94.3877 33.9955 88.8116 32.6112C88.9798 32.1239 89.1653 31.6021 89.3507 30.994C93.3743 31.8048 101.059 33.6592 107.407 38.6789C107.373 38.6962 109.024 41.1888 110.508 44.7423C112.026 48.3993 113.708 53.2681 115.226 58.7579C118.141 69.2847 120.431 82.1058 120.616 93.3916C117.899 97.5359 112.867 101.275 107.541 103.772C104.201 105.35 100.667 106.481 97.0312 107.136L94.875 103.5C96.1558 103.026 97.4194 102.508 98.5147 102.017C105.152 99.1013 108.757 95.9532 108.757 95.9532L103.095 89.4845C103.095 89.4845 100.671 91.7097 95.0087 94.2023C89.355 96.695 80.7084 99.1876 69 99.1876C57.2916 99.1876 48.6493 96.695 42.9913 94.2023C37.329 91.7097 34.9054 89.4845 34.9054 89.4845L29.2431 95.9532C29.2431 95.9532 32.8483 99.1013 39.4853 102.017C40.5806 102.508 41.8442 103.03 43.125 103.5L40.9688 107.14C37.331 106.483 33.7959 105.349 30.4549 103.767C25.1332 101.275 20.0963 97.5359 17.388 93.3916C17.5691 82.1058 19.8591 69.2847 22.7786 58.7579C24.0687 53.9962 25.6427 49.3159 27.4922 44.7423C28.9757 41.1888 30.6274 38.6962 30.5929 38.6789C36.9409 33.6592 44.6258 31.8048 48.6493 30.9984ZM53.9062 60.3751C50.5727 60.3751 47.6229 62.2769 45.8203 64.6876C44.0177 67.0983 43.125 70.061 43.125 73.3126C43.125 76.5642 44.0177 79.5269 45.8203 81.9376C47.6229 84.3483 50.5727 86.2501 53.9062 86.2501C57.2398 86.2501 60.1896 84.3483 61.9922 81.9376C63.7948 79.5269 64.6875 76.5642 64.6875 73.3126C64.6875 70.061 63.7948 67.0983 61.9922 64.6876C60.1896 62.2769 57.2398 60.3751 53.9062 60.3751ZM84.0938 60.3751C80.7602 60.3751 77.8104 62.2769 76.0078 64.6876C74.2052 67.0983 73.3125 70.061 73.3125 73.3126C73.3125 76.5642 74.2052 79.5269 76.0078 81.9376C77.8104 84.3483 80.7602 86.2501 84.0938 86.2501C87.4273 86.2501 90.3771 84.3483 92.1797 81.9376C93.9823 79.5269 94.875 76.5642 94.875 73.3126C94.875 70.061 93.9823 67.0983 92.1797 64.6876C90.3771 62.2769 87.4273 60.3751 84.0938 60.3751ZM53.9062 69.0001C54.1434 69.0001 54.4453 69.0863 54.9844 69.8108C55.5234 70.531 56.0625 71.7946 56.0625 73.3126C56.0625 74.8306 55.5234 76.0942 54.9844 76.8187C54.4453 77.5388 54.1434 77.6251 53.9062 77.6251C53.6691 77.6251 53.3672 77.5389 52.8281 76.8144C52.115 75.7868 51.7383 74.5633 51.75 73.3126C51.75 71.7946 52.2891 70.531 52.8281 69.8065C53.3672 69.0864 53.6691 69.0001 53.9062 69.0001ZM84.0938 69.0001C84.3309 69.0001 84.6328 69.0863 85.1719 69.8108C85.7109 70.531 86.25 71.7946 86.25 73.3126C86.25 74.8306 85.7109 76.0942 85.1719 76.8187C84.6328 77.5388 84.3309 77.6251 84.0938 77.6251C83.8566 77.6251 83.5547 77.5389 83.0156 76.8144C82.3025 75.7868 81.9258 74.5633 81.9375 73.3126C81.9375 71.7946 82.4766 70.531 83.0156 69.8065C83.5547 69.0864 83.8566 69.0001 84.0938 69.0001Z" fill="white"/>
</g>
</svg>
