<svg width="48" height="48" viewBox="0 0 48 48" fill="none" xmlns="http://www.w3.org/2000/svg">
<g id="Smart watch">
<g id="Group">
<path id="Vector" d="M16.0608 25.875C17.3234 25.875 18.4651 25.1768 19.0402 24.0527L20.1907 21.8043L22.2117 28.7754C22.5828 30.0554 23.6328 30.9678 24.952 31.1566C25.1168 31.1802 25.2806 31.1917 25.4427 31.1917C26.5782 31.1917 27.6244 30.6237 28.2502 29.6397L30.6448 25.875H38.3091C39.3446 25.875 40.1841 25.0356 40.1841 24C40.1841 23.117 39.5736 22.3765 38.7517 22.1776V16.2873C38.7517 12.7908 36.3468 9.84553 33.1041 9.01875L32.1818 4.71647C31.5961 1.98356 29.1424 0 26.3473 0H21.6532C18.8583 0 16.4045 1.98356 15.8187 4.71647L14.8964 9.01875C11.6538 9.84553 9.24872 12.7908 9.24872 16.2873V17.9409C8.42681 18.1399 7.81641 18.8803 7.81641 19.7633C7.81641 20.6464 8.42681 21.3868 9.24872 21.5858V26.4143C8.42681 26.6132 7.81641 27.3536 7.81641 28.2367C7.81641 29.1197 8.42681 29.8601 9.24872 30.0591V31.7126C9.24872 35.2091 11.6537 38.1544 14.8964 38.9812L15.8186 43.2835C16.4045 46.0164 18.8582 48 21.6532 48H26.3473C29.1423 48 31.5961 46.0164 32.1818 43.2835L33.1036 38.9836C34.052 38.7434 34.9457 38.3171 35.7458 37.7175C37.0063 36.773 37.9555 35.4273 38.4185 33.9283C38.7241 32.9389 38.1698 31.8891 37.1803 31.5834C36.1906 31.2779 35.1412 31.8322 34.8354 32.8216C34.3476 34.4013 32.9073 35.4626 31.2517 35.4626H16.7488C14.6811 35.4626 12.9988 33.7804 12.9988 31.7126V25.875H16.0608ZM28.5152 42.4976C28.2975 43.513 27.3858 44.25 26.3473 44.25H21.6532C20.6148 44.25 19.7031 43.513 19.4854 42.4976L18.7812 39.2128H29.2192L28.5152 42.4976ZM19.4854 5.50238C19.7031 4.48697 20.6148 3.75 21.6532 3.75H26.3473C27.3858 3.75 28.2975 4.48697 28.5152 5.50238L29.2193 8.78719H18.7813L19.4854 5.50238ZM16.7488 12.5372H31.2517C33.3195 12.5372 35.0017 14.2194 35.0017 16.2872V22.125H30.4235C29.2728 22.125 28.217 22.7048 27.5994 23.6756L25.565 26.8742L23.5093 19.7837C23.1248 18.4575 21.9882 17.5155 20.6137 17.384C19.2388 17.2526 17.9444 17.9618 17.3154 19.1911L15.8143 22.125H12.9988V16.2872C12.9988 14.2194 14.6811 12.5372 16.7488 12.5372Z" fill="white"/>
</g>
</g>
</svg>
