<svg width="48" height="48" viewBox="0 0 48 48" fill="none" xmlns="http://www.w3.org/2000/svg">
<g id="Planet earth">
<path id="Vector" d="M45.8111 6.72115C45.161 4.67659 44.2799 3.21267 44.2425 3.15114C44.0981 2.91301 43.8006 2.78914 43.5312 2.85094C43.4614 2.86687 41.7975 3.25524 39.8782 4.2138C37.2871 5.50744 35.4771 7.23449 34.6432 9.20736C33.9492 10.8504 33.8495 12.8589 34.3419 15.0779C33.293 13.9065 32.1131 12.8817 30.8268 12.019C30.4341 11.2431 29.3956 9.33288 27.7721 7.33639C27.2373 6.67913 26.2087 7.50393 26.749 8.16778C27.843 9.51333 28.6664 10.8366 29.1814 11.7458L23.1765 10.5752L17.4713 2.79326C18.0253 2.80095 18.5812 2.85451 19.1344 2.963C20.8881 3.30632 22.6203 4.19951 24.2839 5.6173C24.9357 6.17293 25.7822 5.16164 25.1389 4.6137C23.3012 3.0476 21.3662 2.05663 19.3876 1.66909C16.3672 1.07802 12.8444 1.85393 9.19915 3.91387C6.48223 5.44921 4.66537 7.13561 4.58956 7.20647C4.34649 7.43361 4.30776 7.84615 4.51129 8.11147C4.7777 8.65804 5.78735 10.6298 7.46798 12.7526C8.45867 14.0043 9.50348 15.0754 10.5843 15.9557C10.2772 16.2131 9.97836 16.4822 9.68914 16.7654C8.14447 18.2763 6.96179 20.0586 6.18533 22.007C5.49896 23.7285 5.12982 25.5806 5.10922 27.4894C5.07516 30.6109 5.97961 33.6215 7.72534 36.1961C9.43069 38.7109 11.8147 40.6417 14.6195 41.7796C15.4045 42.0974 15.9008 40.8766 15.1153 40.558C14.0991 40.1457 13.1443 39.6175 12.2638 38.9894C12.3764 38.3648 12.6376 36.117 11.1446 33.7901C10.9355 33.4646 11.5604 32.1864 11.9334 31.4228C12.3184 30.6359 12.7159 29.8224 12.9015 29.0564C13.0988 28.2426 12.8768 27.5595 12.2602 27.0802C11.8076 26.7284 11.2151 26.5463 10.693 26.3856C10.3538 26.2812 9.9693 26.1631 9.83197 26.0486C9.54907 25.8116 9.08709 24.9357 8.71575 24.2323C8.30377 23.452 7.91156 22.7093 7.5111 22.252C8.41226 20.1118 9.85971 18.2181 11.6725 16.7693C13.3284 17.8973 15.2183 18.6757 17.2271 18.8333C14.8975 20.6384 14.1438 22.9436 15.221 25.1579C16.479 27.7435 19.0682 27.3304 21.3525 26.9665C21.7477 26.9033 22.1567 26.8382 22.5484 26.7893C22.6953 26.7709 22.7395 26.811 22.7692 26.8371C23.2693 27.2821 23.2545 29.4071 23.2438 30.9589C23.2292 33.1054 23.2155 35.1329 24.015 36.1739C24.4229 36.7045 24.9972 36.9759 25.6704 36.9759C26.0739 36.9759 26.5122 36.8786 26.972 36.6814C28.9603 35.83 31.0271 33.2674 30.7118 31.2399C30.4363 29.4673 30.2539 28.2961 30.6838 27.3521C31.0812 26.4784 32.0419 25.6696 33.9341 24.6374C34.1606 25.6577 34.2749 26.7193 34.2631 27.8083C34.2227 31.5255 32.7368 35.0046 30.0795 37.6043C27.1096 40.5096 22.9356 41.9444 18.8067 41.4893C17.9654 41.3981 17.8201 42.7072 18.6625 42.8C23.182 43.2977 27.7515 41.7266 31.0013 38.5469C33.9107 35.7006 35.5372 31.8922 35.5815 27.8223C35.6402 22.4261 32.8714 17.6454 28.6565 14.8914C29.5274 14.2704 30.1762 13.7335 30.536 13.4217C32.0727 14.5242 33.4358 15.8824 34.5699 17.4647C37.2923 21.264 38.372 25.8956 37.6106 30.5071C36.0382 40.0265 27.0149 46.4928 17.4938 44.9198C12.882 44.1582 8.8432 41.6467 6.12078 37.8474C3.3981 34.0483 2.31841 29.4162 3.08004 24.8049C3.21682 23.9752 1.91686 23.7574 1.77953 24.5901C0.960228 29.5491 2.12176 34.53 5.04879 38.6156C7.97637 42.7006 12.3201 45.4016 17.2791 46.2209C18.3162 46.392 19.3544 46.4766 20.3854 46.4766C24.2828 46.4766 28.0742 45.2664 31.305 42.9513C35.3911 40.0237 38.0924 35.6809 38.9111 30.7219C39.5113 27.0882 39.0468 23.4426 37.6043 20.1462C38.2701 19.9498 39.4031 19.5686 40.644 18.9489C43.2345 17.6553 45.0448 15.9282 45.8784 13.9554C46.7128 11.982 46.6895 9.48037 45.8111 6.72115ZM7.54956 24.8475C8.0401 25.7775 8.50399 26.6564 8.98602 27.0596C9.32742 27.345 9.80258 27.4911 10.3055 27.6457C11.5939 28.0418 11.7436 28.2362 11.62 28.7457C11.4684 29.3722 11.1025 30.1204 10.7491 30.8436C10.0682 32.2366 9.4252 33.5517 10.0347 34.502C10.899 35.8489 11.0471 37.175 11.0322 37.9998C7.10571 34.4592 5.50692 28.8669 6.96948 23.784C7.16339 24.1164 7.36718 24.5025 7.54956 24.8475ZM39.4443 11.8927L37.5708 7.35259C38.4824 6.50005 39.5401 5.85845 40.441 5.40664C41.2084 5.02157 41.9384 4.73372 42.524 4.52965L39.4443 11.8927ZM43.7394 5.04079C44.0011 5.60329 44.3046 6.32866 44.5639 7.14852C44.8482 8.0483 45.1091 9.16341 45.161 10.3266L40.7706 12.138L43.7394 5.04079ZM35.8575 9.72069C36.0519 9.26092 36.3033 8.83465 36.5936 8.44106L38.7263 13.6088L36.8125 18.1851C36.5436 17.6146 36.2269 16.8654 35.9583 16.0142C35.4191 14.31 34.9643 11.8342 35.8575 9.72069ZM40.0809 17.7561C39.3424 18.1269 38.6376 18.4076 38.0635 18.61L40.0496 13.862L45.105 11.776C45.0316 12.3423 44.8918 12.9037 44.6641 13.442C43.7712 15.5555 41.6789 16.9549 40.0809 17.7561ZM16.3101 17.3809C16.0771 17.3353 15.8473 17.2796 15.6207 17.2161L22.9167 11.868L28.9243 13.0388C26.7358 14.7631 21.4099 18.3801 16.3101 17.3809ZM9.64218 13.2564C8.08184 11.5746 6.93817 9.77645 6.28146 8.62508L13.9266 10.1157L9.64218 13.2564ZM10.9924 4.46099L14.1911 8.82394L6.49652 7.32403C7.46524 6.5591 9.0643 5.41076 10.9924 4.46099ZM16.0983 9.19582L12.2204 3.90618C13.3814 3.4291 14.6275 3.05364 15.9049 2.88665L21.2696 10.2035L16.0983 9.19582ZM15.688 10.459L21.1556 11.5247L14.1383 16.6682C12.815 16.0571 11.6241 15.1784 10.5821 14.2017L15.688 10.459ZM33.5759 23.3322C31.1993 24.5984 30.0356 25.5929 29.4835 26.8061C28.8905 28.1088 29.1078 29.5071 29.4085 31.4423C29.5862 32.5835 28.23 34.7086 26.4529 35.4696C25.7954 35.7512 25.3271 35.7179 25.0604 35.3705C24.5366 34.6888 24.5509 32.6256 24.5622 30.968C24.5778 28.6746 24.5916 26.694 23.6454 25.8522C23.3051 25.5495 22.8697 25.4215 22.386 25.4809C21.9716 25.5325 21.5511 25.5995 21.1449 25.6643C18.7216 26.0505 17.1967 26.2051 16.4067 24.5811C15.1268 21.9507 17.7177 20.0023 18.891 19.2868C19.13 19.1412 19.3516 18.9695 19.5576 18.7784C22.3935 18.4394 25.073 17.2227 27.4609 15.6986C30.3239 17.4092 32.5218 20.1162 33.5759 23.3322Z" fill="white"/>
</g>
</svg>
