<svg width="24" height="24" viewBox="0 0 24 24" fill="none" xmlns="http://www.w3.org/2000/svg">
<g id="Hello" opacity="0.9" clip-path="url(#clip0_165_3824)">
<g id="Group">
<path id="Vector" d="M22.529 12.9815C22.9725 12.5389 23.217 11.9502 23.2173 11.3236C23.2177 10.697 22.9738 10.108 22.5308 9.66494C22.3052 9.43928 22.0441 9.26955 21.7652 9.15547L22.7276 8.19669C23.1721 7.75429 23.4173 7.16531 23.4181 6.53815C23.4188 5.911 23.175 5.32139 22.7316 4.87794L22.7066 4.85302C22.3645 4.51083 21.9415 4.29683 21.4982 4.21108C21.5251 4.06858 21.5393 3.92266 21.5395 3.77445C21.5402 3.14739 21.2964 2.55783 20.853 2.11447L20.8224 2.08389C20.3797 1.64116 19.7911 1.39734 19.165 1.39734C18.7423 1.39734 18.3368 1.50888 17.9817 1.71735C17.866 1.40421 17.6835 1.11704 17.4407 0.874284L17.4205 0.854023C16.5067 -0.0596753 15.0196 -0.0598193 14.1057 0.854071L7.84209 7.11777L8.6201 3.90485C8.92748 2.63537 8.23383 1.34088 7.0066 0.893682C6.31598 0.641995 5.54958 0.699323 4.90399 1.05073C4.2584 1.40215 3.79431 2.0147 3.63068 2.73135L3.52399 3.19881C3.0137 5.43408 2.1702 7.6803 1.01691 9.8749C0.152719 11.5194 -0.176414 13.4425 0.0901569 15.2902C0.365947 17.2019 1.23552 18.9363 2.60491 20.3056C4.28587 21.9866 6.52003 22.9121 8.89704 22.912H8.90309C11.2823 22.9104 13.5178 21.9818 15.1979 20.2973L16.9912 18.4992L22.529 12.9815ZM14.1781 19.28C12.7699 20.6919 10.8962 21.4702 8.90218 21.4716H8.89709C6.90496 21.4716 5.03224 20.6959 3.62343 19.2871C2.47561 18.1393 1.74682 16.6861 1.51578 15.0846C1.29222 13.535 1.56792 11.9228 2.29201 10.5449C3.5033 8.23999 4.3903 5.87624 4.92829 3.51935L5.03498 3.05194C5.10767 2.73346 5.30572 2.47208 5.59265 2.31589C5.87958 2.1597 6.2067 2.13531 6.51355 2.24709C7.05102 2.44293 7.35485 3.00988 7.22022 3.56588L5.83887 9.27003C5.675 9.858 6.43251 10.513 7.04809 9.9488L15.1243 1.87263C15.4765 1.52026 16.0498 1.52035 16.4015 1.87196L16.4216 1.89217C16.5923 2.06286 16.6862 2.28968 16.6862 2.53104C16.6862 2.7724 16.5922 2.99927 16.4216 3.16996C15.1071 4.48447 12.7492 6.84232 11.4589 8.13268C11.1776 8.4139 11.1776 8.86993 11.4589 9.1512C11.7401 9.43246 12.1961 9.43246 12.4774 9.1512C13.2746 8.35393 17.855 3.77358 18.5262 3.10245C18.6968 2.93176 18.9237 2.8378 19.1651 2.8378C19.4064 2.8378 19.6333 2.93176 19.804 3.10245L19.8346 3.13303C20.0055 3.30396 20.0995 3.53121 20.0992 3.77291C20.0989 4.01461 20.0044 4.24167 19.833 4.41231C18.0272 6.21094 15.5575 8.67 13.7698 10.4516C13.488 10.7323 13.4871 11.1883 13.7678 11.4702C13.9085 11.6114 14.0933 11.6821 14.2781 11.6821C14.4619 11.6821 14.6458 11.6121 14.7863 11.4722C15.988 10.2751 19.262 7.01378 20.4119 5.87005C20.7642 5.5195 21.3367 5.52017 21.6882 5.87153L21.7131 5.89645C21.884 6.06743 21.978 6.29468 21.9777 6.53643C21.9774 6.77817 21.8829 7.00523 21.7113 7.17597C19.9596 8.92073 17.1855 11.6836 15.4492 13.4146C15.1674 13.6953 15.1666 14.1513 15.4473 14.4331C15.588 14.5743 15.7727 14.645 15.9575 14.645C16.1413 14.645 16.3253 14.575 16.4658 14.435L19.7683 11.145L20.2378 10.6802C20.5901 10.3315 21.1619 10.3331 21.5123 10.6835C21.6831 10.8542 21.7771 11.0813 21.7769 11.3228C21.7768 11.5643 21.6826 11.7913 21.512 11.9615L15.9729 17.4804L14.1781 19.28Z" fill="#FCD9BB"/>
<path id="Vector_2" d="M21.6605 17.9809C21.817 17.6153 21.6475 17.1919 21.2818 17.0354C20.9162 16.8788 20.4928 17.0484 20.3363 17.414C20.0947 17.9784 19.7499 18.4869 19.3114 18.9253C18.7757 19.461 18.1428 19.8531 17.4301 20.0908C17.0527 20.2167 16.8488 20.6245 16.9747 21.0019C17.0753 21.3037 17.3563 21.4945 17.6578 21.4945C17.7334 21.4945 17.8102 21.4825 17.8858 21.4573C18.8125 21.1482 19.6348 20.639 20.33 19.9439C20.8987 19.375 21.3464 18.7146 21.6605 17.9809Z" fill="#FCD9BB"/>
<path id="Vector_3" d="M23.5633 18.3783C23.1976 18.2216 22.7743 18.3908 22.6175 18.7564C22.281 19.5414 21.8012 20.2486 21.1913 20.8585C20.4821 21.5677 19.6478 22.0975 18.7117 22.4331C18.3373 22.5674 18.1426 22.9797 18.2768 23.3542C18.3823 23.6483 18.6593 23.8315 18.9548 23.8315C19.0355 23.8315 19.1175 23.8178 19.1979 23.789C20.3357 23.3811 21.3491 22.7378 22.2099 21.877C22.9498 21.137 23.5324 20.2781 23.9414 19.324C24.0981 18.9584 23.9288 18.535 23.5633 18.3783Z" fill="#FCD9BB"/>
</g>
</g>
<defs>
<clipPath id="clip0_165_3824">
<rect width="24" height="24" fill="white"/>
</clipPath>
</defs>
</svg>
