<svg width="24" height="24" viewBox="0 0 24 24" fill="none" xmlns="http://www.w3.org/2000/svg">
<g id="Location" clip-path="url(#clip0_165_3833)">
<g id="Group">
<path id="Vector" d="M12.0007 11.4965C14.1701 11.4965 15.935 9.73175 15.935 7.56266C15.935 5.39356 14.1701 3.62891 12.0007 3.62891C9.83134 3.62891 8.06641 5.39356 8.06641 7.56266C8.06641 9.73175 9.83134 11.4965 12.0007 11.4965ZM12.0007 5.03497C13.3947 5.03497 14.5288 6.16892 14.5288 7.56266C14.5288 8.95644 13.3947 10.0904 12.0007 10.0904C10.6067 10.0904 9.47266 8.95644 9.47266 7.56266C9.47266 6.16892 10.6068 5.03497 12.0007 5.03497Z" fill="#FCD9BB"/>
<path id="Vector_2" d="M7.71704 14.6311C8.78274 16.0738 8.35459 15.5128 11.4242 19.8953C11.7032 20.2952 12.2965 20.2971 12.5771 19.896C15.6606 15.4926 15.2363 16.0503 16.2847 14.6311C17.3466 13.1933 18.4448 11.7067 19.0466 9.9645C19.9176 7.44258 19.5411 4.94728 17.9866 2.93822C17.9865 2.93822 17.9865 2.93817 17.9865 2.93817C16.5625 1.09837 14.3249 0 12.0009 0C9.67684 0 7.43921 1.09837 6.0152 2.93827C4.46068 4.94733 4.08418 7.44267 4.95521 9.96459C5.5569 11.7067 6.65509 13.1934 7.71704 14.6311ZM7.12735 3.7987C8.28695 2.30053 10.1088 1.40606 12.0009 1.40606C13.8929 1.40606 15.7148 2.30053 16.8744 3.7987L16.8743 3.79866C18.129 5.42016 18.4283 7.44694 17.7173 9.50559C17.1858 11.0444 16.1526 12.4431 15.1535 13.7958C14.3755 14.8489 14.6084 14.5268 12.0009 18.2645C9.39606 14.5305 9.62593 14.8486 8.84823 13.7958C7.84909 12.4431 6.81592 11.0444 6.2844 9.50559C5.5734 7.44689 5.87274 5.42016 7.12735 3.7987Z" fill="#FCD9BB"/>
<path id="Vector_3" d="M8.29446 17.6797C8.08708 17.3515 7.65283 17.2534 7.32452 17.4608L5.3253 18.7235C4.88917 18.9989 4.88875 19.6365 5.3253 19.9122L11.6253 23.8914C11.8547 24.0363 12.147 24.0362 12.3763 23.8914L18.6763 19.9122C19.1125 19.6368 19.1128 18.9992 18.6763 18.7235L16.6771 17.4608C16.3487 17.2534 15.9145 17.3515 15.7071 17.6797C15.4997 18.008 15.5978 18.4422 15.9261 18.6496L16.9842 19.3179L12.0008 22.4654L7.01735 19.3179L8.0755 18.6496C8.40381 18.4422 8.50183 18.008 8.29446 17.6797Z" fill="#FCD9BB"/>
</g>
</g>
<defs>
<clipPath id="clip0_165_3833">
<rect width="24" height="24" fill="white"/>
</clipPath>
</defs>
</svg>
