<svg width="24" height="24" viewBox="0 0 24 24" fill="none" xmlns="http://www.w3.org/2000/svg">
<g id="Telephone" clip-path="url(#clip0_165_3804)">
<path id="Vector" d="M15.5101 24C5.89399 23.9277 -5.37163 9.91625 2.86042 1.67744C3.15289 1.38014 3.46247 1.09413 3.78054 0.827293C4.45317 0.263009 5.30538 -0.0280135 6.17967 0.00779029C7.05747 0.0437346 7.88283 0.406084 8.50368 1.02801C8.50771 1.03204 8.51174 1.03616 8.51573 1.04029L10.1014 2.68806C11.8174 4.36718 11.2093 7.39522 8.97204 8.27143C8.27944 8.55392 7.83761 8.80478 7.71956 8.88965C6.8464 9.77936 6.29055 11.225 9.55652 14.4966C10.6163 15.5583 12.186 16.9697 13.5758 16.9697C14.1396 16.9697 14.6571 16.7311 15.1567 16.2406C15.2217 16.1453 15.4462 15.7628 15.7358 15.0413C16.6031 12.7887 19.637 12.1625 21.3223 13.8905L22.951 15.4665C22.9549 15.4703 22.9587 15.4741 22.9625 15.4779C23.5809 16.0973 23.9427 16.9204 23.9813 17.7955C24.0199 18.67 23.7324 19.5217 23.1717 20.1938C22.923 20.4919 22.6573 20.783 22.382 21.0588C20.4425 23.0016 18.0946 23.9999 15.5101 24ZM6.03669 1.87699C5.66619 1.87699 5.29348 2.00488 4.98531 2.26338C4.71279 2.49203 4.44741 2.73717 4.19659 2.99211C-0.191946 7.44949 2.22007 13.5381 6.43644 17.7066C10.6148 21.8639 16.6728 24.137 21.0554 19.7343C21.2915 19.4979 21.5192 19.2484 21.7324 18.9929C22.2734 18.3445 22.2336 17.4061 21.641 16.8073L20.0133 15.2321C20.0094 15.2284 20.0056 15.2246 20.0018 15.2208C19.6288 14.8471 19.1184 14.6932 18.6018 14.7988C18.0835 14.9045 17.6731 15.2475 17.4755 15.7396C17.3445 16.066 16.8877 17.1602 16.511 17.5376C15.6455 18.4046 14.6579 18.8442 13.5759 18.8442C11.5125 18.8442 9.63506 17.2285 8.2299 15.821C6.09785 13.7755 3.63371 10.2875 6.4161 7.54186C6.8105 7.14675 7.93031 6.67183 8.26412 6.5357C8.74901 6.33793 9.08694 5.92867 9.19122 5.41294C9.29628 4.89322 9.1422 4.38044 8.76841 4.006C8.76438 4.00197 8.76035 3.99785 8.75637 3.99372L7.17168 2.34694C6.85732 2.03492 6.44839 1.87699 6.03669 1.87699ZM23.0513 11.2053C22.5717 11.2053 22.1628 10.8391 22.1189 10.3521C21.7126 5.84394 18.1457 2.27706 13.6376 1.8708C13.122 1.82436 12.7418 1.36875 12.7882 0.853209C12.8346 0.337616 13.2906 -0.0426818 13.8058 0.00385375C19.0769 0.397976 23.5917 4.91281 23.9859 10.1838C24.0323 10.6994 23.652 11.155 23.1365 11.2014C23.1079 11.2041 23.0795 11.2053 23.0513 11.2053ZM15.7489 11.2039C16.24 11.0401 16.5053 10.5093 16.3414 10.0182C15.9738 8.91622 15.1112 8.03106 14.034 7.6503C13.5461 7.47775 13.0105 7.73358 12.838 8.22166C12.6655 8.7097 12.9213 9.24521 13.4094 9.41771C13.9458 9.60732 14.3771 10.0536 14.5633 10.6114C14.6943 11.004 15.0599 11.2523 15.4522 11.2523C15.5505 11.2524 15.6506 11.2368 15.7489 11.2039ZM19.4312 11.1958C19.9436 11.1225 20.2996 10.6477 20.2263 10.1352C19.7568 6.85306 17.1366 4.23287 13.8544 3.76334C12.6175 3.63648 12.3648 5.39358 13.589 5.619C16.052 5.97132 18.0183 7.93762 18.3706 10.4006C18.4375 10.8681 18.8384 11.2053 19.2972 11.2053C19.3414 11.2054 19.3862 11.2022 19.4312 11.1958Z" fill="#FCD9BB"/>
</g>
<defs>
<clipPath id="clip0_165_3804">
<rect width="24" height="24" fill="white"/>
</clipPath>
</defs>
</svg>
