<svg width="90" height="90" viewBox="0 0 90 90" fill="none" xmlns="http://www.w3.org/2000/svg">
<g id="People" clip-path="url(#clip0_194_23686)">
<g id="Group">
<g id="Group_2">
<g id="Group_3">
<g id="Group_4">
<g id="Group_5">
<path id="Vector" d="M42.3633 31.6406H47.6367V53.0859H42.3633V31.6406Z" fill="#3630A2"/>
</g>
<path id="Vector_2" d="M45 31.6406H47.6367V53.0859H45V31.6406Z" fill="#2E2654"/>
<g id="Group_6">
<g id="Group_7">
<path id="Vector_3" d="M21.8184 60.1589L41.722 53.969L43.2882 59.005L23.3845 65.1949L21.8184 60.1589Z" fill="#3630A2"/>
</g>
<g id="Group_8">
<path id="Vector_4" d="M46.7598 59.0435L48.3259 54.0075L68.2296 60.1974L66.6634 65.2334L46.7598 59.0435Z" fill="#2E2654"/>
</g>
</g>
</g>
<path id="Vector_5" d="M45 62.3145C48.6405 62.3145 51.5918 59.3632 51.5918 55.7227C51.5918 52.0821 48.6405 49.1309 45 49.1309C41.3595 49.1309 38.4082 52.0821 38.4082 55.7227C38.4082 59.3632 41.3595 62.3145 45 62.3145Z" fill="#00EC89"/>
</g>
<g id="Group_9">
<g id="Group_10">
<g id="Group_11">
<g id="Group_12">
<g id="Group_13">
<g id="Group_14">
<g id="Group_15">
<path id="Vector_6" d="M30.7617 90H2.63672C1.18055 90 0 88.8195 0 87.3633V83.8477C0 76.5782 5.91416 70.6641 13.1836 70.6641H20.2148C27.4843 70.6641 33.3984 76.5782 33.3984 83.8477V87.3633C33.3984 88.8195 32.2179 90 30.7617 90Z" fill="#FFEF4A"/>
</g>
<path id="Vector_7" d="M16.6992 90H30.7617C32.2179 90 33.3984 88.8195 33.3984 87.3633V83.8477C33.3984 76.5782 27.4843 70.6641 20.2148 70.6641H16.6992V90Z" fill="#FFCB00"/>
<g id="Group_16">
<path id="Vector_8" d="M16.6992 74.1797C10.8837 74.1797 6.15234 69.4484 6.15234 63.6328C6.15234 57.8173 10.8837 53.0859 16.6992 53.0859C22.5148 53.0859 27.2461 57.8173 27.2461 63.6328C27.2461 69.4484 22.5148 74.1797 16.6992 74.1797Z" fill="#FFD7AA"/>
</g>
</g>
</g>
</g>
</g>
<path id="Vector_9" d="M16.6992 53.0859V74.1797C22.5148 74.1797 27.2461 69.4484 27.2461 63.6328C27.2461 57.8173 22.5148 53.0859 16.6992 53.0859Z" fill="#FFC58F"/>
</g>
</g>
<g id="Group_17">
<g id="Group_18">
<g id="Group_19">
<g id="Group_20">
<g id="Group_21">
<g id="Group_22">
<g id="Group_23">
<path id="Vector_10" d="M87.3633 90H59.2383C57.7821 90 56.6016 88.8195 56.6016 87.3633V83.8477C56.6016 76.5782 62.5157 70.6641 69.7852 70.6641H76.8164C84.0858 70.6641 90 76.5782 90 83.8477V87.3633C90 88.8195 88.8195 90 87.3633 90Z" fill="#BCEAF9"/>
</g>
<path id="Vector_11" d="M73.3008 90H87.3633C88.8195 90 90 88.8195 90 87.3633V83.8477C90 76.5782 84.0858 70.6641 76.8164 70.6641H73.3008V90Z" fill="#7DD5F4"/>
<g id="Group_24">
<path id="Vector_12" d="M73.3008 74.1797C67.4852 74.1797 62.7539 69.4484 62.7539 63.6328C62.7539 57.8173 67.4852 53.0859 73.3008 53.0859C79.1163 53.0859 83.8477 57.8173 83.8477 63.6328C83.8477 69.4484 79.1163 74.1797 73.3008 74.1797Z" fill="#FFD7AA"/>
</g>
</g>
</g>
</g>
</g>
<path id="Vector_13" d="M73.3008 53.0859V74.1797C79.1163 74.1797 83.8477 69.4484 83.8477 63.6328C83.8477 57.8173 79.1163 53.0859 73.3008 53.0859Z" fill="#FFC58F"/>
</g>
</g>
<g id="Group_25">
<g id="Group_26">
<g id="Group_27">
<g id="Group_28">
<g id="Group_29">
<g id="Group_30">
<g id="Group_31">
<path id="Vector_14" d="M59.0625 36.9141H30.9375C29.4813 36.9141 28.3008 35.7335 28.3008 34.2773V30.7617C28.3008 23.4923 34.2149 17.5781 41.4844 17.5781H48.5156C55.7851 17.5781 61.6992 23.4923 61.6992 30.7617V34.2773C61.6992 35.7335 60.5187 36.9141 59.0625 36.9141Z" fill="#FF8493"/>
</g>
<path id="Vector_15" d="M45 36.9141H59.0625C60.5187 36.9141 61.6992 35.7335 61.6992 34.2773V30.7617C61.6992 23.4923 55.7851 17.5781 48.5156 17.5781H45V36.9141Z" fill="#FF1F3D"/>
<g id="Group_32">
<path id="Vector_16" d="M45 21.0938C39.1845 21.0938 34.4531 16.3624 34.4531 10.5469C34.4531 4.73133 39.1845 0 45 0C50.8155 0 55.5469 4.73133 55.5469 10.5469C55.5469 16.3624 50.8155 21.0938 45 21.0938Z" fill="#FFD7AA"/>
</g>
</g>
</g>
</g>
</g>
<path id="Vector_17" d="M45 0V21.0938C50.8155 21.0938 55.5469 16.3624 55.5469 10.5469C55.5469 4.73133 50.8155 0 45 0Z" fill="#FFC58F"/>
</g>
</g>
</g>
<path id="Vector_18" d="M45 49.1309V62.3145C48.6406 62.3145 51.5918 59.3633 51.5918 55.7227C51.5918 52.0821 48.6406 49.1309 45 49.1309Z" fill="#00CB75"/>
</g>
</g>
<defs>
<clipPath id="clip0_194_23686">
<rect width="90" height="90" fill="white"/>
</clipPath>
</defs>
</svg>
