<svg width="90" height="90" viewBox="0 0 90 90" fill="none" xmlns="http://www.w3.org/2000/svg">
<g id="Statistics">
<path id="Vector" d="M26.9675 53.481H13.9817C11.8721 53.481 10.1621 55.191 10.1621 57.3005V86.1803C10.1621 88.2898 11.8721 89.9998 13.9817 89.9998H26.9673C29.0768 89.9998 30.7868 88.2898 30.7868 86.1803V57.3005C30.7868 55.191 29.0768 53.481 26.9675 53.481Z" fill="#FADC60"/>
<path id="Vector_2" d="M15.5948 86.1803V57.3005C15.5948 55.1911 17.3048 53.481 19.4143 53.481H13.9817C11.8721 53.481 10.1621 55.191 10.1621 57.3005V86.1804C10.1621 88.29 11.8721 90 13.9817 90H19.4142C17.3048 89.9998 15.5948 88.2898 15.5948 86.1803Z" fill="#F2C42C"/>
<path id="Vector_3" d="M54.9712 40.2358H41.9856C39.876 40.2358 38.166 41.9458 38.166 44.0554V86.1804C38.166 88.29 39.876 89.9999 41.9856 89.9999H54.9712C57.0807 89.9999 58.7907 88.29 58.7907 86.1804V44.0552C58.7907 41.9458 57.0807 40.2358 54.9712 40.2358Z" fill="#FD6F71"/>
<path id="Vector_4" d="M43.5985 86.1804V44.0554C43.5985 41.9458 45.3085 40.2358 47.4181 40.2358H41.9856C39.876 40.2358 38.166 41.9458 38.166 44.0554V86.1804C38.166 88.2899 39.876 89.9999 41.9856 89.9999H47.4181C45.3085 89.9999 43.5985 88.2899 43.5985 86.1804Z" fill="#E34B4C"/>
<path id="Vector_5" d="M82.9751 26.9907H69.9895C67.8799 26.9907 66.1699 28.7007 66.1699 30.8103V86.1804C66.1699 88.2899 67.8799 89.9999 69.9895 89.9999H82.9751C85.0847 89.9999 86.7946 88.2899 86.7946 86.1804V30.8103C86.7945 28.7007 85.0845 26.9907 82.9751 26.9907Z" fill="#57D0E6"/>
<path id="Vector_6" d="M71.6024 86.1804V30.8103C71.6024 28.7007 73.3124 26.9907 75.422 26.9907H69.9895C67.8799 26.9907 66.1699 28.7007 66.1699 30.8103V86.1804C66.1699 88.2899 67.8799 89.9999 69.9895 89.9999H75.422C73.3124 89.9999 71.6024 88.2899 71.6024 86.1804Z" fill="#4DB8CC"/>
<path id="Vector_7" d="M86.5887 0.0166366L73.4705 1.72628L76.6414 5.96752L65.4073 14.367L59.498 9.15707C58.4903 8.2685 56.9977 8.20856 55.9214 9.01293L30.7963 27.7976L24.9188 23.3946C23.9108 22.6395 22.526 22.6389 21.5176 23.393L1.27148 38.5304L4.67038 43.0768L23.2154 29.2114L29.093 33.6143C30.1008 34.3695 31.4858 34.37 32.4942 33.6159L57.4734 14.9397L63.3826 20.1497C64.3904 21.0383 65.8833 21.0984 66.9592 20.2938L80.0403 10.5136L83.2142 14.7585L88.5627 2.65599C89.1586 1.30757 88.0505 -0.17391 86.5887 0.0166366Z" fill="#58B78C"/>
</g>
</svg>
