<svg width="63" height="63" viewBox="0 0 63 63" fill="none" xmlns="http://www.w3.org/2000/svg">
<g id="bi:arrow-down-left-circle" clip-path="url(#clip0_325_1068)">
<path id="Vector" fill-rule="evenodd" clip-rule="evenodd" d="M17.5015 17.5009C13.8914 21.111 11.8633 26.0073 11.8633 31.1127C11.8633 36.2181 13.8914 41.1144 17.5015 44.7245C21.1116 48.3346 26.0079 50.3627 31.1133 50.3627C36.2187 50.3627 41.115 48.3346 44.7251 44.7245C48.3352 41.1144 50.3633 36.2181 50.3633 31.1127C50.3633 26.0073 48.3352 21.111 44.7251 17.5009C41.115 13.8908 36.2187 11.8627 31.1133 11.8627C26.0079 11.8627 21.1116 13.8908 17.5015 17.5009ZM46.6696 46.669C42.5438 50.7948 36.948 53.1127 31.1133 53.1127C25.2785 53.1127 19.6827 50.7948 15.5569 46.669C11.4311 42.5432 9.11328 36.9475 9.11328 31.1127C9.11328 25.2779 11.4311 19.6821 15.5569 15.5563C19.6827 11.4305 25.2785 9.1127 31.1133 9.1127C36.948 9.1127 42.5438 11.4305 46.6696 15.5563C50.7954 19.6821 53.1133 25.2779 53.1133 31.1127C53.1133 36.9475 50.7954 42.5432 46.6696 46.669ZM40.7388 29.6387C41.1036 29.639 41.4535 29.7842 41.7113 30.0424C41.9691 30.3006 42.1138 30.6506 42.1136 31.0155C42.1133 31.3803 41.9681 31.7302 41.7099 31.988C41.4517 32.2458 41.1017 32.3905 40.7368 32.3903L24.8071 32.3903L30.1896 37.7728C30.4475 38.0306 30.5924 38.3804 30.5924 38.745C30.5924 39.1097 30.4475 39.4594 30.1896 39.7173C29.9318 39.9752 29.582 40.12 29.2174 40.12C28.8527 40.12 28.5029 39.9752 28.2451 39.7173L20.5155 31.9877C20.2577 31.7299 20.1128 31.3801 20.1128 31.0155C20.1128 30.6508 20.2577 30.3011 20.5155 30.0432L28.2451 22.3136C28.5029 22.0558 28.8527 21.9109 29.2174 21.9109C29.582 21.9109 29.9318 22.0558 30.1896 22.3136C30.4475 22.5715 30.5924 22.9212 30.5924 23.2859C30.5924 23.6506 30.4475 24.0003 30.1896 24.2582L24.8071 29.6407L40.7388 29.6387Z" fill="#FCD9BB"/>
</g>
<defs>
<clipPath id="clip0_325_1068">
<rect width="44" height="44" fill="white" transform="translate(31.1133) rotate(45)"/>
</clipPath>
</defs>
</svg>
