<svg width="63" height="63" viewBox="0 0 63 63" fill="none" xmlns="http://www.w3.org/2000/svg">
<g id="bi:arrow-down-left-circle" clip-path="url(#clip0_325_1070)">
<path id="Vector" fill-rule="evenodd" clip-rule="evenodd" d="M44.8364 17.5009C48.4465 21.111 50.4746 26.0073 50.4746 31.1127C50.4746 36.2181 48.4465 41.1144 44.8364 44.7245C41.2263 48.3346 36.33 50.3627 31.2246 50.3627C26.1192 50.3627 21.2229 48.3346 17.6128 44.7245C14.0027 41.1144 11.9746 36.2181 11.9746 31.1127C11.9746 26.0073 14.0027 21.111 17.6128 17.5009C21.2229 13.8908 26.1192 11.8627 31.2246 11.8627C36.33 11.8627 41.2263 13.8908 44.8364 17.5009ZM15.6683 46.669C19.7941 50.7948 25.3898 53.1127 31.2246 53.1127C37.0594 53.1127 42.6552 50.7948 46.781 46.669C50.9068 42.5432 53.2246 36.9475 53.2246 31.1127C53.2246 25.2779 50.9068 19.6821 46.781 15.5563C42.6552 11.4305 37.0594 9.1127 31.2246 9.1127C25.3898 9.1127 19.7941 11.4305 15.6683 15.5563C11.5425 19.6821 9.22461 25.2779 9.22461 31.1127C9.22461 36.9475 11.5425 42.5432 15.6683 46.669ZM21.5991 29.6387C21.2342 29.639 20.8844 29.7842 20.6266 30.0424C20.3688 30.3006 20.2241 30.6506 20.2243 31.0155C20.2246 31.3803 20.3698 31.7302 20.628 31.988C20.8862 32.2458 21.2362 32.3905 21.6011 32.3903L37.5308 32.3903L32.1483 37.7728C31.8904 38.0306 31.7455 38.3804 31.7455 38.745C31.7455 39.1097 31.8904 39.4594 32.1483 39.7173C32.4061 39.9752 32.7559 40.12 33.1205 40.12C33.4852 40.12 33.8349 39.9752 34.0928 39.7173L41.8224 31.9877C42.0802 31.7299 42.2251 31.3801 42.2251 31.0155C42.2251 30.6508 42.0802 30.3011 41.8224 30.0432L34.0928 22.3136C33.8349 22.0558 33.4852 21.9109 33.1205 21.9109C32.7559 21.9109 32.4061 22.0558 32.1483 22.3136C31.8904 22.5715 31.7455 22.9212 31.7455 23.2859C31.7455 23.6506 31.8904 24.0003 32.1483 24.2582L37.5308 29.6407L21.5991 29.6387Z" fill="#FCD9BB"/>
</g>
<defs>
<clipPath id="clip0_325_1070">
<rect width="44" height="44" fill="white" transform="matrix(-0.707107 0.707107 0.707107 0.707107 31.2246 0)"/>
</clipPath>
</defs>
</svg>
