<svg width="154" height="154" viewBox="0 0 154 154" fill="none" xmlns="http://www.w3.org/2000/svg">
<rect width="154" height="154" fill="#1E1E1E"/>
<g clip-path="url(#clip0_39_169)">
<rect width="1440" height="4326" transform="translate(-306 -324)" fill="#08041F"/>
<rect x="-222" y="-166" width="1278" height="519" rx="22" fill="#0C072A"/>
<rect x="-182" y="-38" width="517" height="346" rx="22" fill="url(#paint0_linear_39_169)" fill-opacity="0.1"/>
<circle cx="77" cy="77" r="76.5" fill="white" fill-opacity="0.1" stroke="url(#paint1_linear_39_169)"/>
<path d="M77.123 63.5303C80.6304 63.5303 83.6671 62.2723 86.1491 59.7904C88.6302 57.3089 89.8886 54.2725 89.8886 50.7647C89.8886 47.2582 88.6306 44.2214 86.1487 41.7391C83.6667 39.258 80.63 38 77.123 38C73.6152 38 70.5789 39.258 68.0973 41.7395C65.6158 44.221 64.3574 47.2578 64.3574 50.7647C64.3574 54.2725 65.6158 57.3093 68.0973 59.7908C70.5797 62.2719 73.6164 63.5303 77.123 63.5303ZM70.2938 43.9356C72.1979 42.0314 74.4316 41.1059 77.123 41.1059C79.814 41.1059 82.0481 42.0314 83.9526 43.9356C85.8567 45.8401 86.7827 48.0742 86.7827 50.7647C86.7827 53.4561 85.8567 55.6898 83.9526 57.5943C82.0481 59.4989 79.814 60.4244 77.123 60.4244C74.4324 60.4244 72.1987 59.4985 70.2938 57.5943C68.3893 55.6902 67.4633 53.4561 67.4633 50.7647C67.4633 48.0742 68.3893 45.8401 70.2938 43.9356Z" fill="#FCD9BB"/>
<path d="M99.4587 78.7544C99.3871 77.7216 99.2423 76.5951 99.0292 75.4055C98.8141 74.207 98.5371 73.0739 98.2056 72.0384C97.8627 70.9681 97.3972 69.9111 96.821 68.8982C96.2238 67.8468 95.5218 66.9314 94.7341 66.178C93.9105 65.3899 92.902 64.7563 91.7358 64.2941C90.5737 63.8344 89.2858 63.6015 87.9082 63.6015C87.3671 63.6015 86.8439 63.8235 85.8334 64.4814C85.2115 64.8869 84.4841 65.356 83.6721 65.8748C82.9778 66.3171 82.0373 66.7316 80.8756 67.1069C79.7422 67.4736 78.5914 67.6596 77.4551 67.6596C76.3197 67.6596 75.1689 67.4736 74.0347 67.1069C72.8741 66.732 71.9332 66.3175 71.2401 65.8752C70.4359 65.3612 69.708 64.8922 69.0768 64.481C68.0671 63.8231 67.5439 63.6011 67.0029 63.6011C65.6248 63.6011 64.3373 63.8344 63.1756 64.2945C62.0103 64.7559 61.0014 65.3895 60.1769 66.1784C59.3892 66.9322 58.6872 67.8472 58.0904 68.8982C57.515 69.9111 57.0492 70.9677 56.7063 72.0388C56.3751 73.0744 56.0981 74.207 55.883 75.4055C55.6695 76.5935 55.5252 77.7204 55.4536 78.7556C55.3832 79.7677 55.3477 80.821 55.3477 81.8853C55.3477 84.6519 56.2271 86.8916 57.9614 88.5434C59.6743 90.1734 61.9403 90.9999 64.6968 90.9999H90.2167C92.9724 90.9999 95.2384 90.1734 96.9516 88.5434C98.6863 86.8929 99.5658 84.6523 99.5658 81.8849C99.5654 80.817 99.5294 79.7636 99.4587 78.7544ZM94.8102 86.2932C93.6784 87.3704 92.1758 87.894 90.2162 87.894H64.6968C62.7369 87.894 61.2343 87.3704 60.1029 86.2936C58.9929 85.237 58.4535 83.7947 58.4535 81.8853C58.4535 80.8922 58.4863 79.9116 58.5518 78.9703C58.6157 78.0467 58.7463 77.0322 58.94 75.9542C59.1312 74.8895 59.3747 73.8903 59.6642 72.9858C59.942 72.1185 60.3209 71.2596 60.7907 70.4323C61.2392 69.6438 61.7551 68.9673 62.3244 68.4222C62.857 67.9123 63.5282 67.495 64.3191 67.1821C65.0506 66.8925 65.8727 66.734 66.7651 66.7102C66.8739 66.768 67.0676 66.8784 67.3813 67.083C68.0198 67.4991 68.7558 67.9738 69.5693 68.4934C70.4864 69.0781 71.6679 69.6062 73.0796 70.0619C74.5227 70.5285 75.9946 70.7655 77.4555 70.7655C78.9165 70.7655 80.3887 70.5285 81.8311 70.0623C83.2439 69.6058 84.425 69.0781 85.3433 68.4926C86.1759 67.9604 86.8912 67.4995 87.5297 67.083C87.8435 66.8788 88.0372 66.768 88.1459 66.7102C89.0388 66.734 89.8608 66.8925 90.5927 67.1821C91.3832 67.495 92.0545 67.9127 92.587 68.4222C93.1563 68.9669 93.6723 69.6434 94.1207 70.4327C94.591 71.2596 94.9703 72.1189 95.2477 72.9854C95.5376 73.8912 95.7814 74.8899 95.9723 75.9538C96.1656 77.0338 96.2966 78.0488 96.3605 78.9707V78.9715C96.4264 79.9092 96.4595 80.8894 96.4599 81.8853C96.4595 83.7951 95.9201 85.237 94.8102 86.2932Z" fill="#FCD9BB"/>
<path d="M54.266 110.258C53.5753 110.874 52.684 111.182 51.592 111.182C50.5 111.182 49.6087 110.874 48.918 110.258C48.2273 109.633 47.882 108.797 47.882 107.752V101.2H49.492V107.654C49.492 108.251 49.6647 108.727 50.01 109.082C50.3647 109.437 50.892 109.614 51.592 109.614C52.292 109.614 52.8147 109.437 53.16 109.082C53.5147 108.727 53.692 108.251 53.692 107.654V101.2H55.302V107.752C55.302 108.797 54.9567 109.633 54.266 110.258ZM60.4158 111.182C59.4732 111.182 58.6705 110.967 58.0078 110.538C57.3545 110.109 56.8972 109.521 56.6358 108.774L58.0218 107.962C58.4138 109.063 59.2258 109.614 60.4578 109.614C61.0645 109.614 61.5172 109.497 61.8158 109.264C62.1238 109.021 62.2778 108.709 62.2778 108.326C62.2778 107.925 62.1145 107.621 61.7878 107.416C61.4612 107.201 60.8825 106.968 60.0518 106.716C59.5852 106.576 59.2072 106.445 58.9178 106.324C58.6285 106.203 58.3205 106.035 57.9938 105.82C57.6765 105.596 57.4385 105.321 57.2798 104.994C57.1212 104.667 57.0418 104.285 57.0418 103.846C57.0418 102.978 57.3498 102.292 57.9658 101.788C58.5818 101.275 59.3238 101.018 60.1918 101.018C60.9758 101.018 61.6618 101.209 62.2498 101.592C62.8378 101.975 63.2905 102.502 63.6078 103.174L62.2498 103.958C61.8392 103.043 61.1532 102.586 60.1918 102.586C59.7252 102.586 59.3518 102.698 59.0718 102.922C58.7918 103.137 58.6518 103.431 58.6518 103.804C58.6518 104.168 58.7918 104.457 59.0718 104.672C59.3612 104.877 59.8792 105.097 60.6258 105.33C60.9992 105.451 61.2698 105.545 61.4378 105.61C61.6152 105.666 61.8578 105.759 62.1658 105.89C62.4832 106.021 62.7212 106.151 62.8798 106.282C63.0385 106.413 63.2065 106.576 63.3838 106.772C63.5705 106.968 63.7012 107.192 63.7758 107.444C63.8505 107.696 63.8878 107.981 63.8878 108.298C63.8878 109.185 63.5658 109.889 62.9218 110.412C62.2872 110.925 61.4518 111.182 60.4158 111.182ZM66.8166 109.46H71.1566V111H65.2066V101.2H71.0866V102.74H66.8166V105.288H70.7366V106.814H66.8166V109.46ZM78.2164 111L76.1444 107.43H74.2404V111H72.6304V101.2H76.5504C77.4277 101.2 78.1697 101.508 78.7764 102.124C79.3924 102.731 79.7004 103.473 79.7004 104.35C79.7004 104.975 79.5184 105.549 79.1544 106.072C78.7997 106.585 78.3331 106.959 77.7544 107.192L79.9804 111H78.2164ZM74.2404 102.712V105.988H76.5504C76.9797 105.988 77.3437 105.829 77.6424 105.512C77.9411 105.195 78.0904 104.807 78.0904 104.35C78.0904 103.893 77.9411 103.505 77.6424 103.188C77.3437 102.871 76.9797 102.712 76.5504 102.712H74.2404ZM88.3283 101.2C89.2523 101.2 90.0223 101.508 90.6383 102.124C91.2637 102.74 91.5763 103.505 91.5763 104.42C91.5763 105.325 91.2637 106.091 90.6383 106.716C90.0223 107.332 89.2523 107.64 88.3283 107.64H86.3263V111H84.7163V101.2H88.3283ZM88.3283 106.128C88.8043 106.128 89.1963 105.969 89.5043 105.652C89.8123 105.325 89.9663 104.915 89.9663 104.42C89.9663 103.925 89.8123 103.519 89.5043 103.202C89.1963 102.875 88.8043 102.712 88.3283 102.712H86.3263V106.128H88.3283ZM98.7141 102.74H94.5841V105.484H98.5741V107.024H94.5841V111H92.9741V101.2H98.7141V102.74ZM103.832 101.2C104.756 101.2 105.526 101.508 106.142 102.124C106.768 102.74 107.08 103.505 107.08 104.42C107.08 105.325 106.768 106.091 106.142 106.716C105.526 107.332 104.756 107.64 103.832 107.64H101.83V111H100.22V101.2H103.832ZM103.832 106.128C104.308 106.128 104.7 105.969 105.008 105.652C105.316 105.325 105.47 104.915 105.47 104.42C105.47 103.925 105.316 103.519 105.008 103.202C104.7 102.875 104.308 102.712 103.832 102.712H101.83V106.128H103.832Z" fill="white"/>
</g>
<defs>
<linearGradient id="paint0_linear_39_169" x1="76.5" y1="-38" x2="76.5" y2="308" gradientUnits="userSpaceOnUse">
<stop stop-color="#FF840E"/>
<stop offset="1" stop-color="white" stop-opacity="0"/>
</linearGradient>
<linearGradient id="paint1_linear_39_169" x1="77" y1="0" x2="77" y2="154" gradientUnits="userSpaceOnUse">
<stop stop-color="#01A6E4"/>
<stop offset="1" stop-color="white" stop-opacity="0"/>
</linearGradient>
<clipPath id="clip0_39_169">
<rect width="1440" height="4326" fill="white" transform="translate(-306 -324)"/>
</clipPath>
</defs>
</svg>
