<svg width="32" height="33" viewBox="0 0 32 33" fill="none" xmlns="http://www.w3.org/2000/svg">
<g id="Frame" clip-path="url(#clip0_165_4035)">
<path id="Vector" d="M9.9227 7.63379C10.7747 7.63379 11.5627 7.70046 12.2827 7.89779C12.9361 8.01785 13.5597 8.26423 14.1187 8.62312C14.644 8.95246 15.0374 9.41512 15.2987 10.0085C15.5614 10.6018 15.692 11.3285 15.692 12.1191C15.692 13.0431 15.496 13.8338 15.0374 14.4271C14.644 15.0218 13.988 15.5485 13.2014 15.9445C14.316 16.2751 15.168 16.8685 15.692 17.6591C16.2174 18.4511 16.5454 19.4405 16.5454 20.5618C16.5454 21.4858 16.348 22.2765 16.02 22.9365C15.692 23.5965 15.168 24.1898 14.5774 24.5858C13.9358 25.0103 13.2265 25.3223 12.48 25.5085C11.6934 25.7071 10.9067 25.8391 10.12 25.8391H1.33203V7.63379H9.9227ZM9.39736 15.0205C10.1187 15.0205 10.7094 14.8231 11.168 14.4938C11.6267 14.1645 11.824 13.5698 11.824 12.8445C11.824 12.4485 11.7574 12.0525 11.6267 11.7898C11.496 11.5258 11.2987 11.3271 11.0374 11.1298C10.7747 10.9978 10.512 10.8658 10.184 10.8005C9.85603 10.7338 9.52937 10.7338 9.1347 10.7338H5.33203V15.0218H9.3987L9.39736 15.0205ZM9.5947 22.8045C9.98803 22.8045 10.3814 22.7378 10.7094 22.6725C11.0405 22.6095 11.3537 22.4743 11.6267 22.2765C11.8939 22.0834 12.1174 21.8363 12.2827 21.5511C12.4134 21.2218 12.5454 20.8258 12.5454 20.3645C12.5454 19.4405 12.2827 18.7805 11.7587 18.3191C11.2334 17.9231 10.512 17.7258 9.66003 17.7258H5.33203V22.8058H9.5947V22.8045ZM22.2507 22.7378C22.7747 23.2658 23.5614 23.5298 24.6107 23.5298C25.332 23.5298 25.988 23.3325 26.512 23.0031C27.0374 22.6071 27.3654 22.2111 27.496 21.8151H30.7094C30.184 23.3978 29.3974 24.5191 28.3494 25.2445C27.2987 25.9045 26.0534 26.3005 24.5454 26.3005C23.5805 26.3034 22.6238 26.1242 21.7254 25.7725C20.917 25.4692 20.1961 24.9709 19.6267 24.3218C19.0178 23.7146 18.5676 22.9668 18.316 22.1445C17.988 21.2871 17.856 20.3645 17.856 19.3085C17.856 18.3191 17.988 17.3965 18.316 16.5378C18.6314 15.7112 19.098 14.9507 19.692 14.2951C20.2827 13.7018 21.004 13.1751 21.7907 12.8445C22.6663 12.4925 23.6017 12.3132 24.5454 12.3165C25.66 12.3165 26.644 12.5151 27.496 12.9765C28.3494 13.4378 29.004 13.9658 29.5294 14.7578C30.0653 15.5185 30.4646 16.3667 30.7094 17.2645C30.84 18.1871 30.9054 19.1111 30.84 20.1658H21.332C21.332 21.2218 21.7254 22.2111 22.2507 22.7391V22.7378ZM26.3814 15.8125C25.9227 15.3511 25.2014 15.0871 24.348 15.0871C23.7587 15.0871 23.2987 15.2191 22.9054 15.4165C22.512 15.6151 22.2507 15.8791 21.988 16.1431C21.7467 16.3981 21.5869 16.7194 21.5294 17.0658C21.4627 17.3965 21.3974 17.6591 21.3974 17.9231H27.2987C27.168 16.9338 26.84 16.2751 26.3814 15.8125ZM20.6107 8.88712H27.9547V10.6685H20.612V8.88712H20.6107Z" fill="#FF840E"/>
</g>
<defs>
<clipPath id="clip0_165_4035">
<rect width="32" height="32" fill="white" transform="translate(0 0.5)"/>
</clipPath>
</defs>
</svg>
