<svg width="36" height="36" viewBox="0 0 36 36" fill="none" xmlns="http://www.w3.org/2000/svg">
<g id="Analysis">
<g id="Group">
<path id="Vector" d="M31.5702 7.7682H26.8806C26.2961 3.38906 22.5369 0 18.0005 0C13.464 0 9.70472 3.38906 9.12035 7.7682H4.43072C3.06996 7.7682 1.96289 8.87527 1.96289 10.236V28.821C1.96289 30.1818 3.06996 31.2889 4.43072 31.2889H14.4647V34.5938H13.4645C13.0762 34.5938 12.7613 34.9086 12.7613 35.2969C12.7613 35.6851 13.0762 36 13.4645 36H22.5364C22.9247 36 23.2395 35.6851 23.2395 35.2969C23.2395 34.9086 22.9247 34.5938 22.5364 34.5938H21.5362V31.2889H23.4834C23.8717 31.2889 24.1866 30.974 24.1866 30.5857C24.1866 30.1975 23.8717 29.8826 23.4834 29.8826H4.43072C3.84537 29.8826 3.36914 29.4064 3.36914 28.821V27.8357H32.6318V28.821C32.6318 29.4064 32.1556 29.8826 31.5702 29.8826H29.9155C29.5272 29.8826 29.2124 30.1975 29.2124 30.5857C29.2124 30.974 29.5272 31.2889 29.9155 31.2889H31.5702C32.931 31.2889 34.038 30.1818 34.038 28.821V10.236C34.038 8.87534 32.931 7.7682 31.5702 7.7682ZM15.8709 34.5938V31.289H20.13V34.5938H15.8709ZM18.3243 9.66262H25.5207C25.1649 13.499 21.9283 16.5128 18.0005 16.5128C16.3812 16.5128 14.8793 16.0003 13.6483 15.1294L18.3243 9.66262ZM25.5207 8.25638H18.5293L16.5901 1.53886C17.0472 1.45216 17.5185 1.40625 18.0005 1.40625C21.9282 1.40625 25.1648 4.41998 25.5207 8.25638ZM15.239 1.92895L17.2198 8.7904L12.5803 14.2142C11.2608 12.8537 10.4471 10.9999 10.4471 8.95943C10.4472 5.76872 12.436 3.03377 15.239 1.92895ZM7.1149 26.4295V20.2316H9.06241V26.4295H7.1149ZM13.7227 26.4295V22.4701H15.6703V26.4295H13.7227ZM20.3306 26.4295V24.7608H22.2782V26.4295H20.3306ZM26.9385 26.4295V20.2316H28.886V26.4295H26.9385ZM30.2923 26.4295V20.2316C30.2923 19.4562 29.6614 18.8254 28.886 18.8254H26.9385C26.1631 18.8254 25.5323 19.4562 25.5323 20.2316V26.4295H23.6845V24.7608C23.6845 23.9854 23.0536 23.3545 22.2782 23.3545H20.3306C19.5552 23.3545 18.9244 23.9854 18.9244 24.7608V26.4295H17.0766V22.4701C17.0766 21.6947 16.4457 21.0639 15.6703 21.0639H13.7227C12.9473 21.0639 12.3165 21.6947 12.3165 22.4701V26.4295H10.4687V20.2316C10.4687 19.4562 9.83782 18.8254 9.06241 18.8254H7.1149C6.33949 18.8254 5.70865 19.4562 5.70865 20.2316V26.4295H3.36914V10.236C3.36914 9.65067 3.8453 9.17445 4.43072 9.17445H9.04371C9.15832 14.0158 13.1321 17.9189 18.0005 17.9189C22.8688 17.9189 26.8426 14.0158 26.9572 9.17445H31.5702C32.1556 9.17445 32.6318 9.6506 32.6318 10.236V26.4295H30.2923Z" fill="white"/>
<path id="Vector_2" d="M26.6953 31.2891C27.0836 31.2891 27.3984 30.9743 27.3984 30.5859C27.3984 30.1976 27.0836 29.8828 26.6953 29.8828C26.307 29.8828 25.9922 30.1976 25.9922 30.5859C25.9922 30.9743 26.307 31.2891 26.6953 31.2891Z" fill="white"/>
</g>
</g>
</svg>
