<svg width="36" height="36" viewBox="0 0 36 36" fill="none" xmlns="http://www.w3.org/2000/svg">
<g id="Mail inbox app">
<path id="Vector" d="M31.7812 3.375H4.21875C1.89253 3.375 0 5.26753 0 7.59375V11.0739L15.4822 22.5897C16.2352 23.1498 17.1176 23.4298 18 23.4298C18.8824 23.4298 19.7648 23.1498 20.5178 22.5897L36 11.0739V7.59375C36 5.26753 34.1075 3.375 31.7812 3.375ZM33.1875 9.66066L18.8393 20.333C18.3373 20.7064 17.6627 20.7064 17.1607 20.333L2.8125 9.66066V7.59375C2.8125 6.81834 3.44334 6.1875 4.21875 6.1875H31.7812C32.5567 6.1875 33.1875 6.81834 33.1875 7.59375V9.66066ZM33.1875 16.671L36 14.5791V28.4062C36 30.7325 34.1075 32.625 31.7812 32.625H4.21875C1.89253 32.625 0 30.7325 0 28.4062V14.5791L2.8125 16.671V28.4062C2.8125 29.1817 3.44334 29.8125 4.21875 29.8125H31.7812C32.5567 29.8125 33.1875 29.1817 33.1875 28.4062V16.671Z" fill="white"/>
</g>
</svg>
