<svg width="36" height="36" viewBox="0 0 36 36" fill="none" xmlns="http://www.w3.org/2000/svg">
<g id="Writing">
<g id="Group">
<g id="Group_2">
<g id="Group_3">
<path id="Vector" d="M24.7832 15.4688C24.7832 14.6921 24.1536 14.0625 23.377 14.0625H8.89258C8.11591 14.0625 7.48633 14.6921 7.48633 15.4688C7.48633 16.2454 8.11591 16.875 8.89258 16.875H23.377C24.1536 16.875 24.7832 16.2454 24.7832 15.4688Z" fill="white"/>
<path id="Vector_2" d="M8.89258 19.6875C8.11591 19.6875 7.48633 20.3171 7.48633 21.0938C7.48633 21.8704 8.11591 22.5 8.89258 22.5H17.6894C18.4661 22.5 19.0957 21.8704 19.0957 21.0938C19.0957 20.3171 18.4661 19.6875 17.6894 19.6875H8.89258Z" fill="white"/>
<path id="Vector_3" d="M12.1973 33.1875H7.49414C5.94333 33.1875 4.68164 31.9258 4.68164 30.375V5.625C4.68164 4.07419 5.94333 2.8125 7.49414 2.8125H24.7832C26.334 2.8125 27.5957 4.07419 27.5957 5.625V14.2734C27.5957 15.0501 28.2253 15.6797 29.002 15.6797C29.7786 15.6797 30.4082 15.0501 30.4082 14.2734V5.625C30.4082 2.52338 27.8848 0 24.7832 0H7.49414C4.39252 0 1.86914 2.52338 1.86914 5.625V30.375C1.86914 33.4766 4.39252 36 7.49414 36H12.1973C12.9739 36 13.6035 35.3704 13.6035 34.5938C13.6035 33.8171 12.9739 33.1875 12.1973 33.1875Z" fill="white"/>
<path id="Vector_4" d="M32.8992 20.3603C31.2543 18.7154 28.5779 18.7153 26.9341 20.3592L19.2135 28.0626C19.0496 28.2262 18.9286 28.4277 18.8613 28.6494L17.1799 34.1847C17.0308 34.6755 17.1607 35.2084 17.5189 35.5755C17.7872 35.8505 18.1517 35.9998 18.5255 35.9998C18.6506 35.9998 18.7769 35.983 18.9009 35.9487L24.5768 34.3764C24.8104 34.3117 25.0233 34.1877 25.1949 34.0165L32.8992 26.3266C34.5441 24.6817 34.5441 22.0053 32.8992 20.3603ZM23.4697 31.7647L20.6142 32.5557L21.4498 29.8045L26.6592 24.6066L28.6483 26.5958L23.4697 31.7647ZM30.9115 24.337L30.639 24.6089L28.6502 22.6201L28.9218 22.3492C29.4701 21.8009 30.3622 21.8009 30.9105 22.3492C31.4588 22.8975 31.4588 23.7896 30.9115 24.337Z" fill="white"/>
<path id="Vector_5" d="M23.377 8.4375H8.89258C8.11591 8.4375 7.48633 9.06708 7.48633 9.84375C7.48633 10.6204 8.11591 11.25 8.89258 11.25H23.377C24.1536 11.25 24.7832 10.6204 24.7832 9.84375C24.7832 9.06708 24.1536 8.4375 23.377 8.4375Z" fill="white"/>
</g>
</g>
</g>
</g>
</svg>
