<svg width="36" height="36" viewBox="0 0 36 36" fill="none" xmlns="http://www.w3.org/2000/svg">
<g id="Acceleration" clip-path="url(#clip0_325_979)">
<path id="Vector" d="M36 16.6488C36 16.6442 36 16.6395 36 16.6348C35.9959 16.1995 35.808 15.7842 35.4831 15.4939L31.9312 12.3227C31.4964 11.9346 30.8301 11.9725 30.4417 12.407C30.0539 12.8415 30.0918 13.5081 30.5261 13.8962L32.4281 15.5941H14.3034C13.7925 12.12 10.7974 9.44482 7.19028 9.44482C3.22559 9.44482 0 12.6765 0 16.6488C0 20.6212 3.22559 23.8528 7.19028 23.8528C10.7974 23.8528 13.7925 21.1777 14.3034 17.7035H32.4281L30.5263 19.4017C30.0918 19.7896 30.0539 20.4564 30.442 20.8907C30.6502 21.1241 30.9389 21.243 31.2289 21.243C31.4791 21.243 31.7299 21.1546 31.9312 20.975L35.4831 17.8038C35.808 17.5135 35.9959 17.0984 36 16.6628C36 16.6584 36 16.6538 36 16.6494C36 16.6491 36 16.6491 36 16.6488ZM7.19028 21.7435C4.38849 21.7435 2.10938 19.458 2.10938 16.6488C2.10938 13.8396 4.38849 11.5542 7.19028 11.5542C9.63116 11.5542 11.6757 13.2895 12.1616 15.5941H8.77588C8.19333 15.5941 7.72119 16.0663 7.72119 16.6488C7.72119 17.2314 8.19333 17.7035 8.77588 17.7035H12.1616C11.6757 20.0085 9.63116 21.7435 7.19028 21.7435Z" fill="white"/>
<path id="Vector_2" d="M21.1602 8.15576C21.1602 8.73831 21.6323 9.21045 22.2148 9.21045H33.6887C34.2712 9.21045 34.7434 8.73831 34.7434 8.15576C34.7434 7.57321 34.2712 7.10107 33.6887 7.10107H22.2148C21.6323 7.10107 21.1602 7.57321 21.1602 8.15576Z" fill="white"/>
<path id="Vector_3" d="M14.5801 5.69531H23.4757C24.058 5.69531 24.5304 5.22318 24.5304 4.64062C24.5304 4.05807 24.058 3.58594 23.4757 3.58594H14.5801C13.9978 3.58594 13.5254 4.05807 13.5254 4.64062C13.5254 5.22318 13.9978 5.69531 14.5801 5.69531Z" fill="white"/>
<path id="Vector_4" d="M26.9727 5.69531H28.6179C29.2004 5.69531 29.6725 5.22318 29.6725 4.64062C29.6725 4.05807 29.2004 3.58594 28.6179 3.58594H26.9727C26.3901 3.58594 25.918 4.05807 25.918 4.64062C25.918 5.22318 26.3901 5.69531 26.9727 5.69531Z" fill="white"/>
<path id="Vector_5" d="M15.0684 9.13965C14.4858 9.13965 14.0137 9.61206 14.0137 10.1943C14.0137 10.7769 14.4858 11.249 15.0684 11.249H16.7136C17.2961 11.249 17.7682 10.7769 17.7682 10.1943C17.7682 9.61206 17.2961 9.13965 16.7136 9.13965H15.0684Z" fill="white"/>
<path id="Vector_6" d="M18.1237 21.7939C18.7063 21.7939 19.1784 21.3218 19.1784 20.7393C19.1784 20.1567 18.7063 19.6846 18.1237 19.6846H16.4785C15.896 19.6846 15.4238 20.1567 15.4238 20.7393C15.4238 21.3218 15.896 21.7939 16.4785 21.7939H18.1237Z" fill="white"/>
<path id="Vector_7" d="M18.1227 28.2661H6.67188C6.08932 28.2661 5.61719 28.7385 5.61719 29.3208C5.61719 29.9034 6.08932 30.3755 6.67188 30.3755H18.1227C18.7052 30.3755 19.1773 29.9034 19.1773 29.3208C19.1773 28.7385 18.7052 28.2661 18.1227 28.2661Z" fill="white"/>
<path id="Vector_8" d="M25.7801 24.751H16.8848C16.3022 24.751 15.8301 25.2234 15.8301 25.8057C15.8301 26.3882 16.3022 26.8604 16.8848 26.8604H25.7801C26.3627 26.8604 26.8348 26.3882 26.8348 25.8057C26.8348 25.2234 26.3627 24.751 25.7801 24.751Z" fill="white"/>
<path id="Vector_9" d="M13.3893 26.8604C13.9719 26.8604 14.444 26.3882 14.444 25.8057C14.444 25.2234 13.9719 24.751 13.3893 24.751H11.7441C11.1616 24.751 10.6895 25.2234 10.6895 25.8057C10.6895 26.3882 11.1616 26.8604 11.7441 26.8604H13.3893Z" fill="white"/>
<path id="Vector_10" d="M25.2917 30.3047H23.6465C23.0639 30.3047 22.5918 30.7768 22.5918 31.3594C22.5918 31.9419 23.0639 32.4141 23.6465 32.4141H25.2917C25.874 32.4141 26.3464 31.9419 26.3464 31.3594C26.3464 30.7768 25.874 30.3047 25.2917 30.3047Z" fill="white"/>
</g>
<defs>
<clipPath id="clip0_325_979">
<rect width="36" height="36" fill="white"/>
</clipPath>
</defs>
</svg>
