<svg width="32" height="33" viewBox="0 0 32 33" fill="none" xmlns="http://www.w3.org/2000/svg">
<g id="Frame" clip-path="url(#clip0_165_4029)">
<path id="Vector" d="M16.0013 3.16699C8.6373 3.16699 2.66797 9.13633 2.66797 16.5003C2.66797 23.155 7.54397 28.671 13.9186 29.6723V20.3537H10.532V16.5003H13.9186V13.563C13.9186 10.2217 15.908 8.37633 18.9546 8.37633C20.4133 8.37633 21.9386 8.63633 21.9386 8.63633V11.9163H20.2586C18.6013 11.9163 18.0853 12.9443 18.0853 13.999V16.5003H21.7826L21.192 20.3537H18.0853V29.6723C24.4586 28.6723 29.3346 23.1537 29.3346 16.5003C29.3346 9.13633 23.3653 3.16699 16.0013 3.16699Z" fill="#FF840E"/>
</g>
<defs>
<clipPath id="clip0_165_4029">
<rect width="32" height="32" fill="white" transform="translate(0 0.5)"/>
</clipPath>
</defs>
</svg>
