<svg width="32" height="33" viewBox="0 0 32 33" fill="none" xmlns="http://www.w3.org/2000/svg">
<g id="Frame" clip-path="url(#clip0_165_4032)">
<path id="Vector" d="M16.0013 12.5003C14.9404 12.5003 13.923 12.9218 13.1729 13.6719C12.4227 14.422 12.0013 15.4395 12.0013 16.5003C12.0013 17.5612 12.4227 18.5786 13.1729 19.3288C13.923 20.0789 14.9404 20.5003 16.0013 20.5003C17.0622 20.5003 18.0796 20.0789 18.8297 19.3288C19.5799 18.5786 20.0013 17.5612 20.0013 16.5003C20.0013 15.4395 19.5799 14.422 18.8297 13.6719C18.0796 12.9218 17.0622 12.5003 16.0013 12.5003ZM16.0013 9.83366C17.7694 9.83366 19.4651 10.536 20.7153 11.7863C21.9656 13.0365 22.668 14.7322 22.668 16.5003C22.668 18.2684 21.9656 19.9641 20.7153 21.2144C19.4651 22.4646 17.7694 23.167 16.0013 23.167C14.2332 23.167 12.5375 22.4646 11.2873 21.2144C10.037 19.9641 9.33463 18.2684 9.33463 16.5003C9.33463 14.7322 10.037 13.0365 11.2873 11.7863C12.5375 10.536 14.2332 9.83366 16.0013 9.83366ZM24.668 9.50033C24.668 9.94235 24.4924 10.3663 24.1798 10.6788C23.8673 10.9914 23.4433 11.167 23.0013 11.167C22.5593 11.167 22.1353 10.9914 21.8228 10.6788C21.5102 10.3663 21.3346 9.94235 21.3346 9.50033C21.3346 9.0583 21.5102 8.63437 21.8228 8.32181C22.1353 8.00925 22.5593 7.83366 23.0013 7.83366C23.4433 7.83366 23.8673 8.00925 24.1798 8.32181C24.4924 8.63437 24.668 9.0583 24.668 9.50033ZM16.0013 5.83366C12.7026 5.83366 12.164 5.84299 10.6293 5.91099C9.58397 5.96033 8.88263 6.10033 8.23197 6.35366C7.6533 6.57766 7.23597 6.84566 6.79197 7.29099C6.37464 7.69419 6.05377 8.18644 5.8533 8.73099C5.59997 9.38433 5.45997 10.0843 5.41197 11.1283C5.34264 12.6003 5.33464 13.115 5.33464 16.5003C5.33464 19.799 5.34397 20.3377 5.41197 21.8723C5.4613 22.9163 5.6013 23.619 5.8533 24.2683C6.07997 24.8483 6.34664 25.2657 6.7893 25.7083C7.23864 26.1563 7.65597 26.4243 8.2293 26.6457C8.88797 26.9003 9.5893 27.0417 10.6293 27.0897C12.1013 27.159 12.616 27.167 16.0013 27.167C19.3 27.167 19.8386 27.1577 21.3733 27.0897C22.416 27.0403 23.1186 26.9003 23.7693 26.6483C24.3466 26.423 24.7666 26.155 25.2093 25.7123C25.6586 25.263 25.9266 24.8457 26.148 24.2723C26.4013 23.615 26.5426 22.9123 26.5906 21.8723C26.66 20.4003 26.668 19.8857 26.668 16.5003C26.668 13.2017 26.6586 12.663 26.5906 11.1283C26.5413 10.0857 26.4013 9.38166 26.148 8.73099C25.947 8.18699 25.6267 7.69494 25.2106 7.29099C24.8076 6.87345 24.3153 6.55255 23.7706 6.35233C23.1173 6.09899 22.416 5.95899 21.3733 5.91099C19.9013 5.84166 19.3866 5.83366 16.0013 5.83366ZM16.0013 3.16699C19.624 3.16699 20.076 3.18033 21.4973 3.24699C22.9173 3.31366 23.884 3.53633 24.7346 3.86699C25.6146 4.20566 26.356 4.66433 27.0973 5.40433C27.7753 6.07085 28.2999 6.87711 28.6346 7.76699C28.964 8.61632 29.188 9.58432 29.2546 11.0043C29.3173 12.4257 29.3346 12.8777 29.3346 16.5003C29.3346 20.123 29.3213 20.575 29.2546 21.9963C29.188 23.4163 28.964 24.383 28.6346 25.2337C28.3009 26.124 27.7761 26.9305 27.0973 27.5963C26.4306 28.2741 25.6244 28.7987 24.7346 29.1337C23.8853 29.463 22.9173 29.687 21.4973 29.7537C20.076 29.8163 19.624 29.8337 16.0013 29.8337C12.3786 29.8337 11.9266 29.8203 10.5053 29.7537C9.0853 29.687 8.11863 29.463 7.26797 29.1337C6.37774 28.7996 5.57134 28.2749 4.9053 27.5963C4.22718 26.9299 3.70254 26.1236 3.36797 25.2337C3.0373 24.3843 2.81464 23.4163 2.74797 21.9963C2.6853 20.575 2.66797 20.123 2.66797 16.5003C2.66797 12.8777 2.6813 12.4257 2.74797 11.0043C2.81464 9.58299 3.0373 8.61766 3.36797 7.76699C3.70162 6.87656 4.22637 6.07009 4.9053 5.40433C5.57153 4.72597 6.37787 4.2013 7.26797 3.86699C8.11863 3.53633 9.08397 3.31366 10.5053 3.24699C11.9266 3.18433 12.3786 3.16699 16.0013 3.16699Z" fill="#FF840E"/>
</g>
<defs>
<clipPath id="clip0_165_4032">
<rect width="32" height="32" fill="white" transform="translate(0 0.5)"/>
</clipPath>
</defs>
</svg>
