<svg width="30" height="30" viewBox="0 0 30 30" fill="none" xmlns="http://www.w3.org/2000/svg">
<g clip-path="url(#clip0_165_3747)">
<path d="M15 0C6.71584 0 0 6.71572 0 15C0 23.2843 6.71584 30 15 30C23.2842 30 30 23.2843 30 15C30 6.71572 23.2842 0 15 0ZM20.1844 15.7951L12.6844 20.4826C12.5326 20.5774 12.3601 20.625 12.1875 20.625C12.0312 20.625 11.8746 20.5861 11.7329 20.5073C11.4349 20.3421 11.25 20.0285 11.25 19.6875V10.3125C11.25 9.97148 11.4349 9.65789 11.7329 9.49266C12.0309 9.32648 12.3953 9.33656 12.6844 9.51738L20.1844 14.2049C20.4584 14.3766 20.625 14.6769 20.625 15C20.625 15.3231 20.4584 15.6235 20.1844 15.7951Z" fill="#FF840E"/>
</g>
<defs>
<clipPath id="clip0_165_3747">
<rect width="30" height="30" fill="white"/>
</clipPath>
</defs>
</svg>
