<svg width="90" height="90" viewBox="0 0 90 90" fill="none" xmlns="http://www.w3.org/2000/svg">
<g id="Growth" clip-path="url(#clip0_194_23753)">
<g id="Group">
<g id="Group_2">
<path id="Vector" d="M8.71289 82.9316L15.1778 84.5136L21.6425 82.9316V79.7612L15.1778 78.1792L8.71289 79.7612V82.9316Z" fill="#F9CF58"/>
<path id="Vector_2" d="M28.5938 82.9316L35.0586 84.5136L41.5235 82.9316V79.7612L35.0586 78.1792L28.5938 79.7612V82.9316Z" fill="#FFAC3E"/>
<path id="Vector_3" d="M48.4766 82.9316L54.9414 84.5136L61.4063 82.9316V79.7612L54.9414 78.1792L48.4766 79.7612V82.9316Z" fill="#82D361"/>
<path id="Vector_4" d="M68.3574 82.9316L74.8223 84.5136L81.2872 82.9316V79.7612L74.8223 78.1792L68.3574 79.7612V82.9316Z" fill="#6CC4FF"/>
<path id="Vector_5" d="M21.6425 79.7611H8.71289V66.9701C8.71289 65.9973 9.50145 65.2087 10.4742 65.2087H19.8815C20.8543 65.2087 21.6428 65.9973 21.6428 66.9701V79.7611H21.6425Z" fill="#FFE27A"/>
<path id="Vector_6" d="M41.5235 79.761H28.5938V57.3568C28.5938 56.384 29.3823 55.5955 30.3551 55.5955H39.7622C40.735 55.5955 41.5235 56.384 41.5235 57.3568V79.761Z" fill="#FFBA57"/>
<path id="Vector_7" d="M61.4063 79.761H48.4766V47.7435C48.4766 46.7707 49.2651 45.9822 50.2379 45.9822H59.6452C60.618 45.9822 61.4065 46.7707 61.4065 47.7435V79.761H61.4063Z" fill="#98DB7C"/>
<path id="Vector_8" d="M81.2872 79.761H68.3574V38.1302C68.3574 37.1575 69.146 36.3689 70.1187 36.3689H79.526C80.4988 36.3689 81.2874 37.1575 81.2874 38.1302L81.2872 79.761Z" fill="#8BCAFF"/>
<path id="Vector_9" d="M74.1716 20.6754L72.6199 5.21983C72.566 4.68212 72.0448 4.3193 71.5218 4.45553L56.479 8.37335C55.7509 8.56301 55.5806 9.51909 56.1983 9.94852L60.1279 12.6807C60.1279 12.6807 50.0498 32.3346 13.6367 43.572V44.5542C23.6276 44.6089 49.7446 41.7516 66.1248 19.7404L68.8612 18.7529L72.7926 21.4863C73.4099 21.9155 74.2466 21.4235 74.1716 20.6754Z" fill="#FF4755"/>
<g id="Group_3">
<g id="Group_4">
<g id="Group_5">
<path id="Vector_10" d="M67.2835 17.6387C66.8915 17.3618 66.3524 17.4515 66.0661 17.8365C49.6859 39.8476 28.6714 42.6195 14.2324 43.6225C14.0197 43.6373 13.8251 43.616 13.6476 43.5685L13.6347 43.5726C11.7723 44.16 12.294 46.9277 14.2422 46.7922C28.8331 45.7771 52.9183 40.5664 68.8608 18.753L67.2835 17.6387Z" fill="#FC2B3A"/>
</g>
</g>
</g>
</g>
<path id="Vector_11" d="M88.679 85.5734H1.321C0.591504 85.5734 0 84.9819 0 84.2524C0 83.5229 0.591328 82.9314 1.321 82.9314H88.6792C89.4087 82.9314 90.0002 83.5229 90.0002 84.2524C90 84.9819 89.4085 85.5734 88.679 85.5734Z" fill="#407093"/>
</g>
</g>
<defs>
<clipPath id="clip0_194_23753">
<rect width="90" height="90" fill="white"/>
</clipPath>
</defs>
</svg>
