<svg width="48" height="48" viewBox="0 0 48 48" fill="none" xmlns="http://www.w3.org/2000/svg">
<g id="Energy" clip-path="url(#clip0_165_3855)">
<path id="Vector" d="M2.55831 18.891C2.72823 18.9602 2.90804 18.9946 3.08785 18.9946C3.27388 18.9946 3.45992 18.9577 3.6346 18.8837L7.84091 17.1087C8.55612 16.8065 8.89157 15.9818 8.58944 15.2663C8.28768 14.5507 7.46261 14.2156 6.74703 14.5174L5.71835 14.9517C8.91061 7.68458 16.1338 2.90625 24.1706 2.90625C33.3596 2.90625 41.384 9.11976 43.6846 18.0161C43.8486 18.65 44.4192 19.0708 45.0451 19.0708C45.1615 19.0708 45.2802 19.0562 45.3981 19.0258C46.1499 18.8313 46.6018 18.0641 46.4074 17.3123C43.786 7.17408 34.6417 0.09375 24.1706 0.09375C14.9608 0.09375 6.68954 5.60084 3.08309 13.9603L2.60848 12.8353C2.30635 12.1201 1.48165 11.7847 0.766069 12.0864C0.050492 12.3886 -0.284591 13.2136 0.0171668 13.9288L1.79219 18.1352C1.93721 18.4787 2.2126 18.7508 2.55831 18.891Z" fill="white"/>
<path id="Vector_2" d="M47.7947 33.9727L46.0197 29.7668C45.8747 29.4229 45.5989 29.1512 45.2536 29.0106C44.9079 28.8703 44.5208 28.8729 44.1773 29.0179L39.971 30.7933C39.2557 31.0951 38.9203 31.9201 39.2224 32.6357C39.5242 33.3513 40.3493 33.6864 41.0648 33.3842L42.2422 32.8873C39.1298 40.3492 31.8055 45.2806 23.6416 45.2806C14.4523 45.2806 6.42783 39.0671 4.12729 30.1707C3.93283 29.4185 3.16562 28.9674 2.41379 29.1611C1.66196 29.3555 1.21005 30.1228 1.40451 30.8746C4.02585 41.0128 13.1701 48.0931 23.6416 48.0931C32.9031 48.0931 41.2157 42.5238 44.7892 34.0848L45.2034 35.0662C45.4301 35.6035 45.9512 35.9261 46.4998 35.9261C46.6818 35.9261 46.8675 35.8906 47.0458 35.8151C47.7614 35.513 48.0965 34.6883 47.7947 33.9727Z" fill="white"/>
<path id="Vector_3" d="M21.0857 39.5722C21.2413 39.6286 21.4024 39.6553 21.5617 39.6553C21.973 39.6553 22.3733 39.4748 22.6457 39.1452L34.426 24.8956C34.7732 24.4755 34.8464 23.8932 34.6146 23.4003C34.3824 22.9078 33.8869 22.5932 33.3424 22.5932H28.218V9.84353C28.218 9.25027 27.8459 8.72109 27.2878 8.52004C26.7301 8.31936 26.1061 8.49038 25.7278 8.94741L13.9475 23.1971C13.6003 23.6167 13.5271 24.1994 13.7589 24.6919C13.9911 25.1849 14.4869 25.4994 15.0315 25.4994H20.1559V38.2491C20.1555 38.8423 20.5276 39.3715 21.0857 39.5722Z" fill="white"/>
</g>
<defs>
<clipPath id="clip0_165_3855">
<rect width="48" height="48" fill="white"/>
</clipPath>
</defs>
</svg>
