<svg width="24" height="24" viewBox="0 0 24 24" fill="none" xmlns="http://www.w3.org/2000/svg">
<g id="Music note" clip-path="url(#clip0_165_3784)">
<g id="Group">
<g id="Group_2">
<path id="Vector" d="M23.7209 5.86106C23.5453 5.72821 23.3174 5.68532 23.1053 5.74532L13.1679 8.55781C12.8652 8.6435 12.6562 8.91978 12.6562 9.23435V18.7533C12.2422 18.5132 11.7621 18.3749 11.25 18.3749C9.69918 18.3749 8.4375 19.6366 8.4375 21.1874C8.4375 22.7382 9.69918 23.9999 11.25 23.9999C12.8008 23.9999 14.0625 22.7382 14.0625 21.1874C14.0625 21.1144 14.0625 12.5786 14.0625 12.5786L22.5937 10.1641V15.9408C22.1796 15.7007 21.6996 15.5625 21.1875 15.5625C19.6366 15.5625 18.375 16.8241 18.375 18.3749C18.375 19.9258 19.6366 21.1874 21.1875 21.1874C22.7383 21.1874 23.9999 19.9258 23.9999 18.3749C23.9999 18.3126 23.9999 6.42187 23.9999 6.42187C24 6.20155 23.8967 5.99395 23.7209 5.86106ZM11.25 22.5937C10.4746 22.5937 9.84379 21.9628 9.84379 21.1874C9.84379 20.412 10.4746 19.7812 11.25 19.7812C12.0254 19.7812 12.6563 20.412 12.6563 21.1874C12.6563 21.9628 12.0254 22.5937 11.25 22.5937ZM21.1875 19.7812C20.4121 19.7812 19.7813 19.1503 19.7813 18.3749C19.7813 17.5995 20.4121 16.9687 21.1875 16.9687C21.9629 16.9687 22.5937 17.5995 22.5937 18.3749C22.5937 19.1503 21.9629 19.7812 21.1875 19.7812ZM22.5937 8.70265L14.0625 11.1171V9.7661L22.5937 7.35163V8.70265Z" fill="#FCD9BB"/>
</g>
</g>
<g id="Group_3">
<g id="Group_4">
<path id="Vector_2" d="M9.81109 4.99126C8.25109 3.8477 7.10824 2.71511 6.31727 1.52866L5.50685 0.313152C5.33496 0.0553401 5.01457 -0.0595501 4.71809 0.0302152C4.42156 0.120027 4.21873 0.393354 4.21873 0.703197V11.7222C3.80469 11.482 3.3246 11.3438 2.81249 11.3438C1.26168 11.3438 0 12.6055 0 14.1563C0 15.7071 1.26168 16.9688 2.81249 16.9688C4.3633 16.9688 5.62498 15.7071 5.62498 14.1563V2.97161C6.4653 4.05437 7.56977 5.09195 8.97967 6.12549C9.5207 6.52205 9.84371 7.15856 9.84371 7.82822C9.84371 8.99132 8.89745 9.93758 7.73434 9.93758C7.34603 9.93758 7.03122 10.2524 7.03122 10.6407C7.03122 11.029 7.34603 11.3438 7.73434 11.3438C9.67285 11.3438 11.25 9.76668 11.25 7.82817C11.25 6.71222 10.712 5.65168 9.81109 4.99126ZM2.81249 15.5625C2.03709 15.5625 1.40624 14.9317 1.40624 14.1563C1.40624 13.3809 2.03709 12.75 2.81249 12.75C3.58789 12.75 4.21873 13.3809 4.21873 14.1563C4.21873 14.9317 3.58789 15.5625 2.81249 15.5625Z" fill="#FCD9BB"/>
</g>
</g>
</g>
<defs>
<clipPath id="clip0_165_3784">
<rect width="24" height="24" fill="white"/>
</clipPath>
</defs>
</svg>
