<svg width="24" height="24" viewBox="0 0 24 24" fill="none" xmlns="http://www.w3.org/2000/svg">
<g id="Smart" clip-path="url(#clip0_165_3811)">
<path id="Vector" d="M11.9998 20.1327C16.4841 20.1327 20.1323 16.4843 20.1323 12.0001C20.1323 7.51581 16.4841 3.86743 11.9998 3.86743C7.51538 3.86743 3.86719 7.51581 3.86719 12.0001C3.86719 16.4843 7.51538 20.1327 11.9998 20.1327ZM11.9998 4.57092C16.0963 4.57092 19.429 7.90363 19.429 12.0001C19.429 16.0965 16.0963 19.4292 11.9998 19.4292C7.9032 19.4292 4.57068 16.0965 4.57068 12.0001C4.57068 7.90363 7.90338 4.57092 11.9998 4.57092Z" fill="#FCD9BB"/>
<path id="Vector_2" d="M17.4155 3.89447C17.1398 3.3739 16.8583 2.83777 16.6437 2.31757C16.5698 2.13794 16.3641 2.05243 16.1845 2.12659C16.0051 2.20056 15.9196 2.40619 15.9935 2.58582C16.0838 2.80444 16.1838 3.02325 16.2896 3.24152C13.6099 1.92664 10.4266 1.90942 7.71185 3.24133C8.11395 2.41113 8.43604 1.56427 8.46716 0.703491H15.5341C15.5414 0.906738 15.5654 1.11511 15.6063 1.33264C15.6422 1.52362 15.8256 1.64923 16.0168 1.61334C16.2078 1.57764 16.3334 1.3938 16.2977 1.20282C16.2424 0.908752 16.2241 0.638123 16.2416 0.375183C16.2552 0.17157 16.0935 0 15.8906 0H8.11066C7.90668 0 7.74628 0.172668 7.75983 0.375183C7.83563 1.51282 7.23413 2.67059 6.58594 3.89447C3.97321 5.64569 2.25 8.62537 2.25 12C2.25 14.3064 3.07068 16.5443 4.56079 18.3019C4.6864 18.4499 4.90833 18.4684 5.05646 18.3428C5.20459 18.2172 5.2229 17.9952 5.09729 17.8471C3.71484 16.2166 2.95349 14.14 2.95349 12C2.95349 7.05817 6.9754 2.91687 12.0672 2.95294C16.996 2.98901 21.0482 7.00287 21.0482 12C21.0482 19.856 11.6492 23.9535 5.88739 18.6689C5.7442 18.5376 5.52191 18.5473 5.39044 18.6903C5.25916 18.8335 5.26886 19.056 5.41187 19.1873C5.78302 19.5275 6.1767 19.8364 6.5896 20.1123C7.23633 21.3336 7.83563 22.4894 7.75983 23.6248C7.74628 23.8281 7.90759 24 8.11066 24H15.8908C16.0948 24 16.2552 23.8273 16.2416 23.6248C16.1656 22.4872 16.7673 21.3294 17.4155 20.1055C23.1951 16.2318 23.1929 7.7666 17.4155 3.89447ZM16.2894 20.7587C15.8873 21.5889 15.5654 22.4357 15.5343 23.2965H8.46716C8.43604 22.4357 8.11414 21.5889 7.71204 20.7587C10.415 22.0836 13.5963 22.08 16.2894 20.7587Z" fill="#FCD9BB"/>
<path id="Vector_3" d="M7.96147 11.0089C8.11033 11.1338 8.33208 11.1142 8.45695 10.9655L11.0558 7.86849C11.5492 7.28054 12.4534 7.28164 12.946 7.86849L15.5448 10.9655C15.67 11.1148 15.892 11.1333 16.0403 11.0089C16.1889 10.8841 16.2084 10.6621 16.0835 10.5135L13.4848 7.41641C12.7116 6.49502 11.292 6.493 10.5171 7.41641L7.91826 10.5135C7.79338 10.6621 7.81279 10.8841 7.96147 11.0089Z" fill="#FCD9BB"/>
<path id="Vector_4" d="M11.0903 13.3931C11.0903 13.5211 10.9865 13.6249 10.8585 13.6249H9.26306C9.13507 13.6249 9.03125 13.5211 9.03125 13.3931C9.03125 13.2962 9.09076 13.2131 9.17517 13.1785C9.82043 12.893 10.584 12.3616 10.5853 11.8202C10.586 11.5023 10.365 11.3494 10.0341 11.3494C9.74426 11.3494 9.53369 11.4684 9.49414 11.7583C9.47913 11.8685 9.38483 11.9535 9.27039 11.9535C9.13654 11.9535 9.03125 11.8365 9.04608 11.7028C9.10138 11.2062 9.4621 10.886 10.0341 10.886C10.6451 10.886 11.0782 11.2509 11.0775 11.8189C11.0767 12.3552 10.6625 12.7881 10.0253 13.1614H10.8586C10.9865 13.1614 11.0903 13.2653 11.0903 13.3931Z" fill="#FCD9BB"/>
<path id="Vector_5" d="M11.6355 14.0913C11.7646 13.9077 11.8158 13.7747 11.8321 13.5843C11.8439 13.444 11.9616 13.334 12.105 13.334C12.2562 13.334 12.3789 13.4567 12.3789 13.6079C12.3789 13.8005 12.1432 14.1446 11.9303 14.3462C11.8953 14.3797 11.8477 14.4 11.7955 14.4C11.6381 14.4 11.5441 14.2204 11.6355 14.0913Z" fill="#FCD9BB"/>
<path id="Vector_6" d="M13.9598 11.7961C14.5132 11.7961 14.9589 12.2123 14.9589 12.7299C14.9589 13.2532 14.4789 13.6597 13.9877 13.6597C13.2767 13.6597 12.8945 13.0328 12.8945 12.2701C12.8945 11.5026 13.2578 10.8804 14.0188 10.8804C14.3358 10.8804 14.5839 10.9884 14.7838 11.1783C14.9352 11.3207 14.8386 11.5842 14.6219 11.5842C14.5628 11.5842 14.5086 11.5623 14.4672 11.5262C14.3376 11.4132 14.1781 11.3422 14.0188 11.3422C13.6716 11.3422 13.4713 11.6144 13.4076 11.9902C13.5614 11.869 13.7526 11.7961 13.9598 11.7961ZM13.4464 12.729C13.4464 13.0013 13.6753 13.1934 13.976 13.1979C14.2502 13.189 14.4685 12.9826 14.4685 12.729C14.4685 12.4679 14.2404 12.2581 13.9575 12.2581C13.6744 12.2581 13.4464 12.4679 13.4464 12.729Z" fill="#FCD9BB"/>
<path id="Vector_7" d="M10.8943 17.2301C10.7907 17.3063 10.6451 17.2839 10.569 17.1805L10.0513 16.4755L9.71936 16.7776V17.0367C9.71936 17.1653 9.61517 17.2695 9.48663 17.2695C9.35809 17.2695 9.25391 17.1653 9.25391 17.0367V14.7869C9.25391 14.6584 9.35809 14.5542 9.48663 14.5542C9.61517 14.5542 9.71936 14.6584 9.71936 14.7869V16.1483L10.5474 15.3948C10.6424 15.3084 10.7896 15.3154 10.8762 15.4104C10.9626 15.5054 10.9557 15.6526 10.8607 15.7391L10.3974 16.1606L10.9442 16.9047C11.0201 17.0084 10.998 17.1541 10.8943 17.2301Z" fill="#FCD9BB"/>
<path id="Vector_8" d="M13.8932 15.3059C14.3872 15.3068 14.7481 15.6752 14.7481 16.1304V17.0348C14.7481 17.1648 14.6434 17.2657 14.5154 17.2675C14.3872 17.2657 14.2825 17.1648 14.2825 17.0348V16.2474C14.2825 15.9662 14.0653 15.7452 13.7978 15.7441C13.5301 15.7452 13.3129 15.9662 13.3129 16.2474V17.0359C13.3129 17.1644 13.2086 17.2686 13.08 17.2686C12.9517 17.2686 12.8473 17.1644 12.8473 17.0359V16.2485C12.8473 15.9704 12.631 15.7452 12.3626 15.7452C12.094 15.7452 11.8777 15.9704 11.8777 16.2485V17.0368C11.8777 17.1653 11.7734 17.2695 11.6448 17.2695C11.5163 17.2695 11.4121 17.1653 11.4121 17.0368V15.5784C11.4121 15.4498 11.5163 15.3456 11.6448 15.3456C11.7673 15.3456 11.8677 15.4401 11.877 15.5601C12.0284 15.4039 12.2418 15.3068 12.4789 15.3068C12.7546 15.3068 12.9985 15.4385 13.1501 15.6415C13.323 15.4383 13.5971 15.3065 13.8932 15.3059Z" fill="#FCD9BB"/>
</g>
<defs>
<clipPath id="clip0_165_3811">
<rect width="24" height="24" fill="white"/>
</clipPath>
</defs>
</svg>
